<svg xmlns="http://www.w3.org/2000/svg" xmlns:xlink="http://www.w3.org/1999/xlink" width="579.046" height="393.496" viewBox="0 0 579.046 393.496"><defs><clipPath id="a"><path d="M342.113,254.414c-1.213,3.732-1.213,4.385-1.213,3.732V72.5H582.426V254.414Z" transform="translate(-340.9 -72.5)"/></clipPath></defs><g transform="translate(-41.9 -50.197)"><g transform="translate(41.9 50.197)"><g transform="translate(43.573)"><g transform="translate(8.564 1.402)" opacity="0.8"><g transform="translate(0 44.355)" opacity="0.5"><path d="M365.632,168.424a135.146,135.146,0,0,1-61.851-26.214c-27.334-20.617-84.52-55.694-139.094-38.249C89.4,128.029,89.123,197.81,108.714,235.685S267.306,384.574,447.447,366.85c161.3-15.673,192.642-196.56,106.723-229.211C479.538,109.185,454.07,181.484,365.632,168.424Z" transform="translate(-97.788 -99.246)" fill="#ced3e6"/></g><g transform="translate(492.951 79.296)" opacity="0.5"><ellipse cx="6.997" cy="7.556" rx="6.997" ry="7.556" fill="#ced3e6"/></g><g transform="translate(39.729 37.151)"><path d="M144.13,91.595a4.479,4.479,0,0,1,5.038,2.8c1.306,3.452-2.052,7.37-6.624,5.691h0C138.719,97.192,140.4,92.341,144.13,91.595Z" transform="translate(-140.375 -91.524)" fill="#ced3e6"/></g><g transform="translate(470.425 9.107)"><circle cx="9.142" cy="9.142" r="9.142" transform="translate(0 18.047) rotate(-80.752)" fill="#ced3e6"/></g><g transform="translate(53.02 23.342)" opacity="0.8"><path d="M172.7,83.418a9.213,9.213,0,1,1-11.381-6.344A9.265,9.265,0,0,1,172.7,83.418Z" transform="translate(-154.622 -76.722)" fill="#ced3e6"/></g><g transform="translate(432.167 303.837)"><path d="M563.988,377.679a4.58,4.58,0,0,1,5.5,1.866c1.959,3.172-.653,7.65-5.5,6.81h0C559.7,384.21,560.443,379.079,563.988,377.679Z" transform="translate(-561.043 -377.393)" fill="#ced3e6"/></g><g transform="translate(443.494 286.85)"><path d="M590.644,364.33a9.2,9.2,0,1,1-12.314-4.2A9.188,9.188,0,0,1,590.644,364.33Z" transform="translate(-573.185 -359.185)" fill="#ced3e6"/></g><g transform="translate(458.154)"><circle cx="5.597" cy="5.597" r="5.597" fill="#ced3e6"/></g></g><g opacity="0.8"><path d="M581.447,158.7c0-50.1-41.7-104.857-93.569-108.215-.933-.093-1.866-.093-2.8-.187-74.351-3.452-80.042,87.225-147.3,97.487S219.112,106.36,138.6,140.037c-72.3,30.226-91.89,200.292,120.53,207.1C429.106,352.643,581.447,308.051,581.447,158.7Z" transform="translate(-88.607 -50.197)" fill="#ced3e6"/></g></g><g transform="translate(221.282 20.806)"><g transform="translate(17.911 319.888)"><ellipse cx="163.909" cy="8.489" rx="163.909" ry="8.489" transform="translate(0 0)" fill="#ced3e6"/></g><g transform="translate(70.247 254.026)"><g transform="translate(199.919 50.656)"><path d="M591.369,399.1H568.7v23.6h26.587V402.925A3.988,3.988,0,0,0,591.369,399.1Z" transform="translate(-568.7 -399.1)" fill="#ced3e6"/></g><g transform="translate(78.363)"><rect width="78.829" height="50.656" fill="#ced3e6"/></g><g transform="translate(0 50.656)"><path d="M571.95,422.7H354.4v-8.769A14.811,14.811,0,0,1,369.233,399.1H557.024a14.811,14.811,0,0,1,14.833,14.833V422.7Z" transform="translate(-354.4 -399.1)" fill="#fff"/></g><g transform="translate(68.661)"><rect width="78.829" height="50.656" fill="#fff"/></g><g transform="translate(68.661)"><path d="M428,360.379l78.923-6.344V344.8H428.187Z" transform="translate(-428 -344.8)" fill="#ced3e6"/></g></g><g transform="translate(0 34.517)"><path d="M636.864,120.042V318.561A10.591,10.591,0,0,1,626.322,329.1H289.642A10.591,10.591,0,0,1,279.1,318.561V120.042A10.591,10.591,0,0,1,289.642,109.5h336.68A10.531,10.531,0,0,1,636.864,120.042Z" transform="translate(-279.1 -109.5)" fill="#ced3e6"/><g transform="translate(325.206)"><path d="M660.258,120.042V303.915H627.7V109.5h22.016A10.531,10.531,0,0,1,660.258,120.042Z" transform="translate(-627.7 -109.5)" fill="#585859"/></g><path d="M623.43,120.042V318.561A10.591,10.591,0,0,1,612.889,329.1H289.642A10.591,10.591,0,0,1,279.1,318.561V120.042A10.591,10.591,0,0,1,289.642,109.5H614.008a.561.561,0,0,1,.373.093h.373a.343.343,0,0,1,.28.093A10.515,10.515,0,0,1,623.43,120.042Z" transform="translate(-279.1 -109.5)" fill="#fff"/><path d="M615.034,109.687a.343.343,0,0,1-.28-.093h-.373a.561.561,0,0,1-.373-.093H289.642A10.591,10.591,0,0,0,279.1,120.042V303.915H623.43V120.042A10.515,10.515,0,0,0,615.034,109.687Zm-5.224,175.85a2.906,2.906,0,0,1-2.892,2.892H295.612a2.906,2.906,0,0,1-2.892-2.892V126.012a2.907,2.907,0,0,1,2.892-2.892H606.918a2.906,2.906,0,0,1,2.892,2.892Z" transform="translate(-279.1 -109.5)" fill="#39393b"/><g transform="translate(13.62 13.62)"><path d="M610.79,126.992V286.423a2.906,2.906,0,0,1-2.892,2.892H296.592a2.906,2.906,0,0,1-2.892-2.892V126.992a2.907,2.907,0,0,1,2.892-2.892H607.9A2.906,2.906,0,0,1,610.79,126.992Z" transform="translate(-293.7 -124.1)" fill="#ced3e6"/></g><g transform="translate(13.713 13.62)"><path d="M610.8,126.992v15.02h-317v-15.02a2.907,2.907,0,0,1,2.892-2.892H608A2.889,2.889,0,0,1,610.8,126.992Z" transform="translate(-293.8 -124.1)" fill="#fff"/><g transform="translate(287.61 6.344)"><path d="M606.951,133.326a2.425,2.425,0,1,1-2.425-2.426A2.409,2.409,0,0,1,606.951,133.326Z" transform="translate(-602.1 -130.9)" fill="#df615c"/><g transform="translate(7.836)"><circle cx="2.426" cy="2.426" r="2.426" fill="#5392f3"/></g></g><g transform="translate(27.707 6.157)"><path d="M573.328,135.831H325.739a2.27,2.27,0,0,1-2.239-2.239v-.653a2.27,2.27,0,0,1,2.239-2.239H573.422a2.27,2.27,0,0,1,2.239,2.239v.653A2.291,2.291,0,0,1,573.328,135.831Z" transform="translate(-323.5 -130.7)" fill="#d2dcec"/></g><g transform="translate(6.414 5.897)"><path d="M305.643,133.293v2.426a.419.419,0,0,1-.653.373l-2.052-1.213-2.052-1.213a.437.437,0,0,1,0-.746l2.052-1.213,2.052-1.213a.419.419,0,0,1,.653.373Z" transform="translate(-300.675 -130.422)"/></g><g transform="translate(15.02 5.897)"><path d="M309.9,133.293v2.426a.419.419,0,0,0,.653.373l2.052-1.213,2.052-1.213a.437.437,0,0,0,0-.746l-2.052-1.213-2.052-1.213a.419.419,0,0,0-.653.373Z" transform="translate(-309.9 -130.422)"/></g></g></g><g transform="translate(316.973 54.551)"><g transform="translate(0)"><path d="M619.178,135.383l-.093-.093a.523.523,0,0,1,0-.84l3.265-3.265a.523.523,0,0,1,.84,0l.093.093a.523.523,0,0,1,0,.84l-3.265,3.265A.7.7,0,0,1,619.178,135.383Z" transform="translate(-618.875 -130.975)" fill="#39393b"/></g><path d="M623.19,135.383l.093-.093a.523.523,0,0,0,0-.84l-3.265-3.265a.523.523,0,0,0-.84,0l-.093.093a.523.523,0,0,0,0,.84l3.265,3.265A.7.7,0,0,0,623.19,135.383Z" transform="translate(-618.875 -130.975)" fill="#39393b"/></g><g transform="translate(49.443)"><g transform="translate(0 69.78)"><g transform="translate(0.093)"><path d="M570.647,284.435H338.171a6.012,6.012,0,0,1-5.971-5.97V153.271a6.012,6.012,0,0,1,5.971-5.971H570.647a6.012,6.012,0,0,1,5.971,5.971V278.558A5.817,5.817,0,0,1,570.647,284.435Z" transform="translate(-332.2 -147.3)" fill="#fff"/></g><g transform="translate(15.673 54.574)"><g transform="translate(0 12.594)"><path d="M404.034,222.285H350.393a1.474,1.474,0,0,1-1.493-1.493h0a1.474,1.474,0,0,1,1.493-1.493h53.641a1.474,1.474,0,0,1,1.493,1.493h0A1.474,1.474,0,0,1,404.034,222.285Z" transform="translate(-348.9 -219.3)" fill="#ced3e6"/></g><path d="M404.034,208.785H350.393a1.474,1.474,0,0,1-1.493-1.493h0a1.474,1.474,0,0,1,1.493-1.493h53.641a1.474,1.474,0,0,1,1.493,1.493h0A1.474,1.474,0,0,1,404.034,208.785Z" transform="translate(-348.9 -205.8)" fill="#ced3e6"/><g transform="translate(0 25.188)"><path d="M404.034,235.785H350.393a1.474,1.474,0,0,1-1.493-1.493h0a1.474,1.474,0,0,1,1.493-1.493h53.641a1.474,1.474,0,0,1,1.493,1.493h0A1.474,1.474,0,0,1,404.034,235.785Z" transform="translate(-348.9 -232.8)" fill="#ced3e6"/></g></g><g transform="translate(180.421 54.574)"><g transform="translate(0 12.594)"><path d="M580.634,222.285H526.993a1.473,1.473,0,0,1-1.493-1.493h0a1.474,1.474,0,0,1,1.493-1.493h53.641a1.473,1.473,0,0,1,1.493,1.493h0A1.473,1.473,0,0,1,580.634,222.285Z" transform="translate(-525.5 -219.3)" fill="#ced3e6"/></g><path d="M580.634,208.785H526.993a1.473,1.473,0,0,1-1.493-1.493h0a1.474,1.474,0,0,1,1.493-1.493h53.641a1.473,1.473,0,0,1,1.493,1.493h0A1.473,1.473,0,0,1,580.634,208.785Z" transform="translate(-525.5 -205.8)" fill="#ced3e6"/><g transform="translate(0 25.188)"><path d="M580.634,235.785H526.993a1.473,1.473,0,0,1-1.493-1.493h0a1.474,1.474,0,0,1,1.493-1.493h53.641a1.473,1.473,0,0,1,1.493,1.493h0A1.473,1.473,0,0,1,580.634,235.785Z" transform="translate(-525.5 -232.8)" fill="#ced3e6"/></g></g><g transform="translate(0 115.865)"><path d="M332.193,271.5H576.7v20.057a1.334,1.334,0,0,1-1.306,1.306H333.406a1.275,1.275,0,0,1-1.306-1.306V271.5Z" transform="translate(-332.1 -271.5)" fill="#39393b"/></g><g transform="translate(218.856 120.343)"><path d="M568.379,279.752v-1.866h2.239V276.3H567.54a.836.836,0,0,0-.84.84v2.612h1.679Z" transform="translate(-566.7 -276.3)" fill="#fff"/><g transform="translate(0.093 6.624)"><path d="M568.386,283.4H566.8v2.705a.836.836,0,0,0,.84.84h3.078v-1.586h-2.239V283.4Z" transform="translate(-566.8 -283.4)" fill="#fff"/></g><g transform="translate(6.437 0)"><path d="M575.839,279.752h1.586V277.14a.836.836,0,0,0-.84-.84H573.6v1.586h2.146v1.866Z" transform="translate(-573.6 -276.3)" fill="#fff"/></g><g transform="translate(6.53 6.624)"><path d="M575.846,283.4v1.959H573.7v1.586h2.985a.836.836,0,0,0,.84-.84V283.4h-1.679Z" transform="translate(-573.7 -283.4)" fill="#fff"/></g></g><g transform="translate(14.273 120.716)"><path d="M347.4,281.738V276.7l4.478,2.519,4.385,2.519-4.385,2.612-4.478,2.519Z" transform="translate(-347.4 -276.7)" fill="#fff"/></g><g transform="translate(36.849 121.276)"><path d="M373.466,286.442h-1.119a.736.736,0,0,1-.746-.746v-7.65a.736.736,0,0,1,.746-.746h1.119a.736.736,0,0,1,.746.746v7.65A.736.736,0,0,1,373.466,286.442Z" transform="translate(-371.6 -277.3)" fill="#fff"/><g transform="translate(5.691)"><path d="M379.566,286.442h-1.119a.736.736,0,0,1-.746-.746v-7.65a.736.736,0,0,1,.746-.746h1.119a.736.736,0,0,1,.746.746v7.65A.736.736,0,0,1,379.566,286.442Z" transform="translate(-377.7 -277.3)" fill="#fff"/></g></g><g transform="translate(0.093 111.854)"><rect width="244.511" height="4.011" fill="#ced3e6"/><rect width="125.474" height="4.011" fill="#df615c"/></g><g transform="translate(194.228 96.181)"><g transform="translate(11.195)"><g transform="translate(0 0.093)"><path d="M552.3,250.5h2.8v6.064h3.732v2.146h-6.437V250.5Z" transform="translate(-552.3 -250.5)" fill="#39393b"/></g><g transform="translate(7.277 0.093)"><path d="M560.1,250.5h2.8v8.209h-2.8Z" transform="translate(-560.1 -250.5)" fill="#39393b"/></g><g transform="translate(10.448 0.093)"><path d="M573.109,250.5l-3.452,8.209h-2.705L563.5,250.5h2.985l1.959,4.758L570.4,250.5h2.705Z" transform="translate(-563.5 -250.5)" fill="#39393b"/></g><g transform="translate(20.337)"><path d="M580.91,256.557v2.052H574.1V250.4h6.623v2.052h-3.918v.933h3.452v1.959h-3.452v1.12h4.1Z" transform="translate(-574.1 -250.4)" fill="#39393b"/></g></g><g transform="translate(0 0.746)"><path d="M547.017,254.558a3.358,3.358,0,1,1-3.358-3.358A3.344,3.344,0,0,1,547.017,254.558Z" transform="translate(-540.3 -251.2)" fill="#df615c"/></g></g><g transform="translate(7.277 94.968)"><g transform="translate(14.087 0.56)"><path d="M363.583,256.7c0,1.866-1.772,3.079-4.291,3.079S355,258.562,355,256.7a2.622,2.622,0,0,1,1.306-2.239,2.435,2.435,0,0,1-.933-1.866c0-1.772,1.679-2.892,4.011-2.892s4.011,1.119,4.011,2.892a2.3,2.3,0,0,1-.933,1.866A2.922,2.922,0,0,1,363.583,256.7Zm-3.265-.093a.979.979,0,0,0-1.026-1.026.933.933,0,0,0-1.026,1.026,1.026,1.026,0,0,0,2.052,0Zm-1.866-3.825a.763.763,0,0,0,.746.84c.466,0,.746-.28.746-.84a.751.751,0,1,0-1.493,0Z" transform="translate(-355 -249.7)" fill="#39393b"/><g transform="translate(9.142 0.093)"><path d="M364.8,254.838c0-3.172,1.772-5.038,4.385-5.038,2.519,0,4.385,1.866,4.385,5.038s-1.772,5.038-4.385,5.038C366.666,259.782,364.8,258.009,364.8,254.838Zm5.5,0c0-1.866-.466-2.426-1.119-2.426s-1.119.56-1.119,2.426.466,2.426,1.119,2.426S370.3,256.61,370.3,254.838Z" transform="translate(-364.8 -249.8)" fill="#39393b"/></g></g><g transform="translate(2.425)"><path d="M348.471,252.085a2.985,2.985,0,1,1-2.985-2.985A2.947,2.947,0,0,1,348.471,252.085Z" transform="translate(-342.5 -249.1)" fill="#df615c"/></g><g transform="translate(0 6.903)"><path d="M350.908,260.045H339.9a5.645,5.645,0,0,1,5.411-3.545h.187A5.785,5.785,0,0,1,350.908,260.045Z" transform="translate(-339.9 -256.5)" fill="#df615c"/></g></g></g><g transform="translate(8.209)"><g clip-path="url(#a)"><g transform="translate(11.416 3.583)"><g transform="translate(0 40.043)"><g transform="translate(0 38.802)"><path d="M380.156,179.368s-1.493,9.049-8.116,10.635c-5.318,1.306-10.448-3.825-12.128-5.877a9.913,9.913,0,0,0-.653-.746h-1.026c-1.4,0-3.918-.28-4.851-2.052-1.4-2.426,3.638-4.1,3.638-4.1s-2.612-2.332-1.959-4.011,4.1-1.959,4.1-1.959-3.732-2.426-2.519-4.571c1.866-3.172,5.784.28,6.064.466-.28-.28-5.131-5.317-2.426-6.157,2.332-.746,6.157,1.772,8.583,4.385l.653.653a1.611,1.611,0,0,0,.373-.28c1.213-.84,5.131-3.079,7.556-1.026C380.529,167.241,380.156,179.368,380.156,179.368Z" transform="translate(-353.137 -160.857)" fill="#ea9b7a"/></g><g transform="translate(14.515 51.525)"><path d="M374.3,185.881a.6.6,0,0,1-.56,0,.585.585,0,0,1-.187-.746,5.086,5.086,0,0,0,.84-3.918c-.84-3.358-5.411-5.691-5.411-5.691a.544.544,0,1,1,.56-.933c.187.093,4.944,2.612,5.97,6.437a5.558,5.558,0,0,1-.933,4.758A.343.343,0,0,0,374.3,185.881Z" transform="translate(-368.696 -174.496)" fill="#d96c63"/></g><g transform="translate(5.003 47.504)"><path d="M369.042,172.625a1.535,1.535,0,0,1-.746,1.4c-.093.093-.187.093-.373.187a2.76,2.76,0,0,1-.933.187,4.059,4.059,0,0,1,.653.56,1.5,1.5,0,0,1,.373.653,1.237,1.237,0,0,1-.28,1.306c-.84,1.119-2.8,1.586-4.385,1.772a5.22,5.22,0,0,1,2.426,2.519,1.606,1.606,0,0,1-.187,1.586,5.814,5.814,0,0,1-1.12.84,18.52,18.52,0,0,1-4.291,1.213,5.636,5.636,0,0,1-.653-.746H358.5a.343.343,0,0,1,.28-.093c1.959-.187,5.317-.933,5.97-1.772.093-.093.187-.28.093-.653-.373-1.026-2.239-2.332-3.918-2.705-.28-.093-.466-.28-.373-.56a.522.522,0,0,1,.56-.466c1.306,0,4.851-.187,5.877-1.493a.705.705,0,0,0,.093-.373c-.093-.28-.373-.466-.84-.746a17.6,17.6,0,0,0-3.079-1.213c-.093,0-.187-.093-.28-.187a.41.41,0,0,1-.093-.466.531.531,0,0,1,.653-.373,3.388,3.388,0,0,1,1.026.28,10.951,10.951,0,0,0,2.426.093,1.576,1.576,0,0,0,.933-.28.631.631,0,0,0,.28-.56,2.974,2.974,0,0,0-.56-1.586.6.6,0,0,1,0-.56h0a.487.487,0,0,1,.84.093A4.437,4.437,0,0,1,369.042,172.625Z" transform="translate(-358.5 -170.186)" fill="#d96c63"/></g><g transform="translate(4.624)"><path d="M365.1,159.319a16.253,16.253,0,0,1,2.426,1.772,22.179,22.179,0,0,0,1.772,1.586h0l-10.169-43.006a.522.522,0,0,0-1.026.187l7,39.461Z" transform="translate(-358.093 -119.264)" fill="#39393b"/></g><g transform="translate(13.959 50.503)"><path d="M374.63,186.834c-3.545,2.239-4.478.56-4.478.56l-1.772-10.075.187-.187a1.512,1.512,0,0,0,.28-1.306,2.339,2.339,0,0,0-.373-.653l-.373-.373v-.187a2.2,2.2,0,0,0,.746-.187c.093-.093.28-.093.373-.187a1.489,1.489,0,0,0,.653-.84,3.139,3.139,0,0,0,1.586.746h.466Z" transform="translate(-368.1 -173.4)" fill="#39393b"/></g><g transform="translate(14.298 43.413)"><path d="M377.64,170.558a21.064,21.064,0,0,1-3.452,2.332,6.245,6.245,0,0,1-3.079.746,2.474,2.474,0,0,1-1.866-1.119c-1.679-2.239-.28-5.131.746-6.717l.653.653a1.611,1.611,0,0,0,.373-.28c-.84,1.306-2.332,3.918-.933,5.691a1.456,1.456,0,0,0,1.213.653c1.866.187,4.758-1.959,5.691-2.8a.568.568,0,0,1,.746,0A.59.59,0,0,1,377.64,170.558Z" transform="translate(-368.463 -165.8)" fill="#d96c63"/></g><g transform="translate(13.213 37.722)"><path d="M431.763,159.7h0v.187l-.093.28-.093.653c-.093.187-.093.466-.187.746s-.093.466-.187.746c-.187.933-.466,1.959-.746,2.985-.56,1.959-1.119,4.011-1.772,5.97s-1.4,3.918-2.146,5.877c-.373.933-.84,1.866-1.213,2.892-.373.933-.84,1.866-1.306,2.8-.933,1.866-1.866,3.638-2.892,5.411a9.319,9.319,0,0,0-.746,1.306c-.28.466-.56.84-.84,1.306l-1.679,2.519c-1.119,1.679-2.426,3.172-3.638,4.758-1.306,1.493-2.612,2.985-4.011,4.385l-1.026,1.026-1.119,1.026-.56.466-.093.093.093-.093.093-.093c.093-.093.28-.187.373-.28a7.563,7.563,0,0,1,1.959-.933c.187,0,.28-.093.466-.093h1.773c.187.093-.187,0-.653-.187a16.962,16.962,0,0,1-1.772-.933,20.73,20.73,0,0,1-2.146-1.4c-1.493-1.026-3.079-2.332-4.664-3.638-1.586-1.4-3.172-2.8-4.758-4.291s-3.172-3.079-4.664-4.664c-1.586-1.586-3.079-3.265-4.664-4.851-.746-.84-1.493-1.679-2.332-2.519l-2.239-2.426L367.3,191.512l.56.84.56.84,1.119,1.586,2.239,3.079c1.493,2.052,2.985,4.011,4.571,5.971s3.265,3.918,4.944,5.784c.84.933,1.772,1.866,2.612,2.8l2.8,2.8c1.959,1.866,3.918,3.638,6.25,5.5a29.212,29.212,0,0,0,3.732,2.612,48.022,48.022,0,0,0,4.478,2.519,22.642,22.642,0,0,0,6.157,2.052l.466.093a4.039,4.039,0,0,1,.466.093,3.827,3.827,0,0,0,1.026.093c.373,0,.746.093,1.119.093h2.332c.373,0,.84-.093,1.306-.093.187,0,.466-.093.653-.093s.466-.093.653-.093c.466-.093.84-.187,1.306-.28a15.255,15.255,0,0,0,5.131-2.426l1.119-.84.28-.187.28-.187.187-.187.746-.653,1.586-1.4c.466-.466,1.026-.933,1.493-1.493,2.052-1.959,3.825-4.011,5.691-6.064a67.856,67.856,0,0,0,4.944-6.624,76.8,76.8,0,0,0,4.291-6.9l.933-1.772c.28-.56.653-1.213.933-1.772s.653-1.213.933-1.772l.84-1.866a100.808,100.808,0,0,0,5.411-15.113c.653-2.612,1.306-5.131,1.772-7.836.28-1.306.466-2.612.653-4.011,0-.373.093-.653.093-1.026s.093-.653.093-1.026.093-.746.093-1.119l.093-1.306Z" transform="translate(-367.3 -159.7)" fill="#faaf3a"/></g><g transform="translate(24.314 65.046)"><path d="M379.2,190.585A1.453,1.453,0,1,0,380.506,189,1.605,1.605,0,0,0,379.2,190.585Z" transform="translate(-379.2 -188.989)" fill="#c77e2e"/></g><g transform="translate(54.143 79.889)"><path d="M411.851,216.841a.7.7,0,0,0,.653-.466,45.381,45.381,0,0,0,1.026-10.822.653.653,0,0,0-1.306,0,43.466,43.466,0,0,1-1.026,10.542.577.577,0,0,0,.466.746Z" transform="translate(-411.174 -204.9)" fill="#c77e2e"/><g transform="translate(1.107 0.896)"><path d="M415.942,212.428a.343.343,0,0,0,.28-.093.641.641,0,0,0,.28-.84,56.728,56.728,0,0,0-3.079-5.411.6.6,0,1,0-.933.746,48.731,48.731,0,0,1,2.892,5.224A.63.63,0,0,0,415.942,212.428Z" transform="translate(-412.361 -205.861)" fill="#c77e2e"/></g></g><g transform="translate(17.934 63.559)"><g transform="translate(1.319)"><path d="M374.358,202.7a.713.713,0,0,0,.466-.187c5.224-5.411,17.072-13.993,17.165-13.993a.608.608,0,1,0-.653-1.026c-.093.093-12.034,8.676-17.352,14.18a.523.523,0,0,0,0,.84A.485.485,0,0,0,374.358,202.7Z" transform="translate(-373.775 -187.396)" fill="#c77e2e"/></g><g transform="translate(0 1.833)"><path d="M379.3,198.167a.485.485,0,0,0,.373-.187.6.6,0,0,0,.093-.84l-6.344-7.556a.6.6,0,1,0-.933.746l6.344,7.556A.513.513,0,0,0,379.3,198.167Z" transform="translate(-372.361 -189.361)" fill="#c77e2e"/></g></g></g><g transform="translate(61.443 167.23)"><g transform="translate(0 29.479)"><path d="M450.718,352.5l8.489-50.1.653-4.1-24.442-8.583-1.4-.466-5.784-2.052s-.466,2.146-1.213,5.784l-.28,1.4c-2.332,11.848-6.624,36.289-7.743,58.119h31.718Z" transform="translate(-419 -287.2)" fill="#39393b"/><g transform="translate(26.121 13.695)"><path d="M448.306,353.488c3.638-19.964,8.4-49.163,8.676-50.843.093-.373-.187-.653-.56-.746s-.653.187-.746.56-4.944,30.692-8.676,51.029h1.306Z" transform="translate(-447 -301.881)" fill="#585859"/></g></g><g transform="translate(7.836)"><g transform="translate(1.349)"><path d="M500.822,269.127s1.866,17.445-2.146,27.147-55.32,4.758-68.381-4.011c-5.411-3.545,6.064-36.663,6.064-36.663Z" transform="translate(-428.846 -255.6)" fill="#39393b"/></g><g transform="translate(0 16.494)"><path d="M427.4,293.449a19.632,19.632,0,0,0,2.239-.56A11.342,11.342,0,0,0,433,291.21a19.842,19.842,0,0,0,2.985-2.426c5.691-5.691,7.37-14.367,7.37-14.74a.66.66,0,1,0-1.306-.187c0,.093-1.772,9.049-7.463,14.553a22.693,22.693,0,0,1-2.332,1.866,10.382,10.382,0,0,1-3.265,1.493,7.772,7.772,0,0,1-1.4.373A7.318,7.318,0,0,1,427.4,293.449Z" transform="translate(-427.4 -273.281)" fill="#585859"/></g><g transform="translate(31.718 7.09)"><path d="M461.4,297.717a.638.638,0,0,0,.653.653h0a.624.624,0,0,0,.653-.56c.093-2.426.28-4.851.373-7.277,0-.466.093-.84.093-1.306.56-7.93,1.213-15.766,1.679-21.363,0-.466.093-.84.093-1.306.093-1.213.187-2.332.28-3.172-.466-.093-.84-.093-1.306-.187-.093.933-.187,1.959-.28,3.265,0,.373-.093.84-.093,1.306-.466,5.5-1.12,13.247-1.679,21.177,0,.466-.093.84-.093,1.306C461.68,292.679,461.493,295.2,461.4,297.717Z" transform="translate(-461.4 -263.2)" fill="#585859"/></g><g transform="translate(29.479 7.836)"><path d="M459.373,289.375a10.79,10.79,0,0,0,2.332.84c.373.093.84.28,1.306.373.373.093.84.093,1.213.187a4.375,4.375,0,0,0,2.239-.373,2.664,2.664,0,0,0,1.493-2.052c.466-2.426,1.493-12.594,2.146-19.777,0-.466.093-.84.093-1.306.093-1.12.187-2.239.28-3.079-.466-.093-.84-.093-1.306-.187q-.14,1.4-.28,3.079c0,.373-.093.84-.093,1.306-.653,7.183-1.679,17.258-2.146,19.684a1.346,1.346,0,0,1-.84,1.119,4.083,4.083,0,0,1-2.8,0,6.871,6.871,0,0,1-1.306-.373c-.746-.28-1.4-.56-1.772-.746a.588.588,0,0,0-.84.28C458.907,288.815,459,289.188,459.373,289.375Z" transform="translate(-459 -264)" fill="#585859"/></g></g><g transform="translate(43.006 16.419)"><g transform="translate(0 8.247)"><path d="M496.912,352.156c2.052-18.565,4.385-43.473,5.691-57.839,0-.466.093-.933.093-1.306.56-6.344.933-10.355.933-10.355-3.172-1.306-8.862-.373-14.926,1.306-.466.093-.84.28-1.306.373a189.669,189.669,0,0,0-22.3,8.676v59.145h31.812Z" transform="translate(-465.1 -282.041)" fill="#39393b"/></g><g transform="translate(27.147 26.681)"><path d="M495.693,353.482c1.772-20.617,3.825-50.563,3.825-50.936a.7.7,0,1,0-1.4-.093c0,.373-2.146,30.319-3.918,51.029h1.493Z" transform="translate(-494.2 -301.8)" fill="#585859"/></g><g transform="translate(18.64)"><path d="M485.1,274.04a35.583,35.583,0,0,0,3.638,9.7,21.826,21.826,0,0,0,6.81,7.556,15.477,15.477,0,0,0,8.4,2.426c0-.466.093-.933.093-1.306a14.23,14.23,0,0,1-7.836-2.239,20.32,20.32,0,0,1-6.157-6.81,33.2,33.2,0,0,1-3.638-9.609.709.709,0,0,0-.746-.56A.726.726,0,0,0,485.1,274.04Z" transform="translate(-485.081 -273.2)" fill="#585859"/></g></g></g><g transform="translate(70.306)"><g transform="translate(0 59.667)"><path d="M428.5,260.27c14.18,13.247,47.857,20.337,73.792,7.743,2.8-7.743,5.97-35.543,6.81-43.753.187-1.679.28-3.265.373-4.944a211.963,211.963,0,0,0,0-24.348,7.063,7.063,0,0,0-.093-1.4c-.373-6.9-.84-14.087-1.306-21.643-.933-15.02-5.971-24.255-14.646-25.655a35.807,35.807,0,0,1-9.609-2.892c-.28-.093-.56-.28-.84-.373A25.291,25.291,0,0,1,478.6,140.3h-19.4a14.687,14.687,0,0,1-6.064,5.038c-.28.093-.466.28-.746.373-6.9,2.985-14.926,2.426-16.605,10.728-1.026,5.224,2.985,15.952,2.519,37.782,0,1.586-.093,3.265-.187,4.944q-.14,2.379-.28,5.038c-.093,1.586-.28,3.265-.466,4.944-.187,1.493-.28,2.985-.466,4.571s-.373,3.265-.653,4.944C434.937,227.525,431.392,248.609,428.5,260.27Z" transform="translate(-428.5 -140.3)" fill="#faaf3a"/><g transform="translate(65.931 42.82)"><path d="M499.758,267.828h-.187a.59.59,0,0,1-.373-.746c10.822-39.555,8.583-79.762,8.583-80.229a.608.608,0,0,1,1.213-.093c0,.373,2.239,40.861-8.676,80.6C500.318,267.735,500.038,267.828,499.758,267.828Z" transform="translate(-499.174 -186.2)" fill="#c77e2e"/></g><g transform="translate(7.37 37.502)"><path d="M437.053,216.136a.8.8,0,0,0,.653-.56c1.306-11.475,1.306-34.237,1.306-34.424a.653.653,0,0,0-1.306,0c0,.187,0,22.949-1.306,34.33,0,.28.187.56.653.653Z" transform="translate(-436.4 -180.5)" fill="#c77e2e"/></g><g transform="translate(34.601 114.642)"><path d="M465.6,264.785a1.453,1.453,0,1,0,1.306-1.586A1.4,1.4,0,0,0,465.6,264.785Z" transform="translate(-465.59 -263.189)" fill="#c77e2e"/></g><g transform="translate(34.33 121.732)"><path d="M465.3,272.385a1.453,1.453,0,1,0,1.306-1.586A1.472,1.472,0,0,0,465.3,272.385Z" transform="translate(-465.3 -270.789)" fill="#c77e2e"/></g><g transform="translate(14.601 30.039)"><path d="M446.809,187.8c-3.825-4.385-2.426-14.273-2.332-14.74a.624.624,0,0,1,.653-.56H458.1a.681.681,0,0,1,.653.56c.093.373,1.493,10.262-2.332,14.74a6.451,6.451,0,0,1-9.609,0Zm-1.119-13.993c-.28,2.052-.84,9.7,2.146,13.154a4.756,4.756,0,0,0,3.825,1.679,4.887,4.887,0,0,0,3.825-1.679c2.985-3.452,2.332-11.1,2.146-13.154Z" transform="translate(-444.151 -172.5)" fill="#c77e2e"/></g></g><g transform="translate(13.932)"><path d="M481.278,87.964c-3.638-2.332-15.02-3.545-15.02-3.545s-1.866-4.944-4.011-6.344c-4.851-3.172-5.411,3.265-5.411,3.265s-4.664-6.53-8.956-4.664c-4.2,1.866,1.213,8.023,1.213,8.023s-6.344-1.213-5.6,4.2,6.81,7.743,6.81,7.743a12.047,12.047,0,0,0-.933,8.023c.933,4.944,3.079,5.131,3.079,5.131l26.308,2.332s5.411,0,6.81-6.81-3.265-9.609-3.265-9.609S485.289,90.576,481.278,87.964Z" transform="translate(-443.435 -76.341)" fill="#39393b"/><g transform="translate(8.475 43.995)"><g transform="translate(7.911)"><path d="M461,135.721v4.944a11.88,11.88,0,0,0,1.772,1.213c8.583,5.131,17.818-1.213,17.818-1.213V123.5l-17.259,10.728Z" transform="translate(-461 -123.5)" fill="#ea9b7a"/></g><g transform="translate(7.911 7.836)"><path d="M461,136.191v5.038a11.88,11.88,0,0,0,1.772,1.213c7.277-2.892,12.594-10.542,12.594-10.542l-12.034,2.892Z" transform="translate(-461 -131.9)" fill="#39393b"/></g><g transform="translate(16.214 12.128)"><path d="M481.188,136.5a9.71,9.71,0,0,1,7.37,7.556c-5.6,5.877-10.635,11.008-18.658,12.5V144.709A19.769,19.769,0,0,0,481.188,136.5Z" transform="translate(-469.9 -136.5)" fill="#faaf3a"/></g><g transform="translate(0.541 13.9)"><path d="M460.283,138.4s-5.131,1.119-7.183,7.743c5.224,6.344,7.93,8.676,15.579,10.635V144.93C468.773,144.93,464.481,144.837,460.283,138.4Z" transform="translate(-453.1 -138.4)" fill="#faaf3a"/></g><g transform="translate(0 19.091)"><g transform="translate(4.833 16.359)"><path d="M457.7,231.747l3.358,8.116h0l1.493,3.638,4.2,10.169,2.052-3.918.746-1.4,1.679-3.172.746-1.4,1.586-3.172.746-1.4,1.679-3.172h0l.653-1.4,1.586-2.985v-.28l-.28-2.426-.56-5.317-.187-2.426-.56-5.317-.28-2.332-.56-5.411-.187-2.332-.56-5.411-.28-2.332-.56-5.317-.187-2.426-.56-5.317-.28-2.426-.56-5.317-.187-2.332-.56-5.411-.28-2.332-.56-5.6-4.011-.093-.187.933-.187,1.866-.56,4.2-.28,1.866-.56,4.291-.28,1.866-.56,4.291-.187,1.866-.56,4.2-.28,1.866-.56,4.291-.28,1.866-.56,4.291-.187,1.866-.56,4.291-.28,1.866-.56,4.2-.28,1.866-.56,4.291-.187,1.866-.56,4.291-.28,1.866-.56,4.2-.28,1.866Z" transform="translate(-457.7 -161.5)" fill="#39393b"/><g transform="translate(0 0.933)"><g transform="translate(8.956)"><path d="M467.3,164.366l5.224,5.224-.28-2.332-4.758-4.758Z" transform="translate(-467.3 -162.5)" fill="#585859"/></g><g transform="translate(8.116 6.064)"><path d="M466.4,170.866l6.81,6.9-.187-2.332L466.68,169Z" transform="translate(-466.4 -169)" fill="#585859"/></g><g transform="translate(7.277 12.221)"><path d="M465.5,177.466l8.489,8.489-.28-2.426-7.93-7.93Z" transform="translate(-465.5 -175.6)" fill="#585859"/></g><g transform="translate(6.53 18.378)"><path d="M464.7,184.066l9.982,10.075-.187-2.426-9.609-9.515Z" transform="translate(-464.7 -182.2)" fill="#585859"/></g><g transform="translate(5.691 24.442)"><path d="M463.8,190.566l11.661,11.661-.28-2.332L464.08,188.7Z" transform="translate(-463.8 -188.7)" fill="#585859"/></g><g transform="translate(4.851 30.599)"><path d="M462.9,197.166l13.247,13.247-.187-2.332L463.18,195.3Z" transform="translate(-462.9 -195.3)" fill="#585859"/></g><g transform="translate(4.105 36.756)"><path d="M462.1,203.766,476.933,218.6l-.28-2.332L462.287,201.9Z" transform="translate(-462.1 -201.9)" fill="#585859"/></g><g transform="translate(3.265 42.913)"><path d="M461.2,210.366l16.419,16.419-.187-2.426L461.48,208.5Z" transform="translate(-461.2 -208.5)" fill="#585859"/></g><g transform="translate(2.425 48.977)"><path d="M460.3,216.866l18.1,18.1-.28-2.426L460.58,215Z" transform="translate(-460.3 -215)" fill="#585859"/></g><g transform="translate(1.679 55.134)"><path d="M459.5,223.466l16.605,16.605.653-1.4L459.687,221.6Z" transform="translate(-459.5 -221.6)" fill="#585859"/></g><g transform="translate(0.84 61.291)"><path d="M458.6,230.066l15.02,15.02.746-1.4L458.88,228.2Z" transform="translate(-458.6 -228.2)" fill="#585859"/></g><g transform="translate(0 67.355)"><path d="M457.7,236.566l13.527,13.527.746-1.4L457.98,234.7Z" transform="translate(-457.7 -234.7)" fill="#585859"/></g><g transform="translate(3.358 77.43)"><path d="M461.3,245.5l1.493,3.638,6.25,6.25.746-1.4Z" transform="translate(-461.3 -245.5)" fill="#585859"/></g></g><g transform="translate(8.956)"><path d="M471.685,161.593l-1.959,3.079-2.052-3.172-.373,2.705,2.332,2.426,2.332-2.892Z" transform="translate(-467.3 -161.5)" fill="#585859"/></g></g><g transform="translate(10.897 4.605)"><path d="M474.928,155.71l-5.411,8.116L464.2,155.71l5.317-6.81Z" transform="translate(-464.2 -148.9)" fill="#39393b"/></g><path d="M477.316,160.883c.187,0,.28-.093.373-.093,5.411-4.291,9.982-15.486,10.169-15.952a.65.65,0,0,0-1.213-.466c0,.093-4.385,10.635-9.329,15.02L469.107,148.2a.529.529,0,0,0-.933,0l-7.65,10.915c-1.213-2.146-4.291-7.743-6.81-12.967a.626.626,0,1,0-1.119.56c3.265,6.53,7.277,13.807,7.37,13.9a.564.564,0,0,0,.56.28.665.665,0,0,0,.56-.28l7.743-11.008,8.116,11.008c0,.187.093.28.373.28Z" transform="translate(-452.52 -143.964)" fill="#c77e2e"/><g transform="translate(15.561 1.153)"><path d="M469.853,149.3a.638.638,0,0,0,.653-.653v-2.8a.653.653,0,1,0-1.306,0v2.8A.638.638,0,0,0,469.853,149.3Z" transform="translate(-469.2 -145.2)" fill="#c77e2e"/></g></g></g><g transform="translate(5.177 32.893)"><path d="M454.037,113.093s-2.8-3.358-4.385,0-.373,9.982,3.918,8.956Z" transform="translate(-448.984 -111.6)" fill="#d96c63"/></g><g transform="translate(7.244 14.981)"><path d="M451.2,123.372s0,10.169,10.635,10.169c10.542,0,17.725-8.3,18.1-8.676h0l.093-2.146.56-11.1.28-5.971S482.172,94.919,472,92.96c-7.463-1.4-14.46-.187-17.912,3.732-.093.093-.187.28-.373.373a9,9,0,0,0-1.959,5.038l-.373,10.728-.093,2.612Z" transform="translate(-451.2 -92.399)" fill="#ea9b7a"/></g><g transform="translate(18.795 24.588)"><path d="M464.252,105.778s4.478,3.358,7.09,1.213-3.545-4.385-5.6-4.291C463.785,102.886,462.852,105.032,464.252,105.778Z" transform="translate(-463.581 -102.697)" fill="#39393b"/></g><g transform="translate(6.889 24.588)"><path d="M458.544,105.778s-4.478,3.358-7.09,1.213,3.545-4.385,5.6-4.291C459.011,102.886,459.85,105.032,458.544,105.778Z" transform="translate(-450.819 -102.697)" fill="#39393b"/></g><g transform="translate(16.631 45.613)"><path d="M462.7,126.975a4.923,4.923,0,0,0,3.079-.933.466.466,0,1,0-.56-.746,3.018,3.018,0,0,1-3.265.466.5.5,0,1,0-.373.933Z" transform="translate(-461.262 -125.234)" fill="#d96c63"/></g><g transform="translate(12.935 39.983)"><path d="M467.1,119.2s-6.437,1.306-9.8,1.026c0,0,1.213,4.851,6.064,3.638A4.922,4.922,0,0,0,467.1,119.2Z" transform="translate(-457.3 -119.2)" fill="#fff"/></g><g transform="translate(9.856 14.981)"><path d="M454,97.064c1.679-.56,2.892,0,5.5,1.119,3.732,1.679,7.93.187,11.661-1.772,3.732-1.866,5.97.746,4.664,2.519s-1.119,3.172.28,5.317c1.4,2.239-2.612,3.265-.373,4.944a2.149,2.149,0,0,1,.466,2.8,1.554,1.554,0,0,0,1.679,2.052h0c1.213-.28,2.892-2.426,2.892-2.426l.28-5.971s1.306-10.728-8.862-12.687c-7.463-1.4-14.46-.187-17.912,3.732C454.28,96.785,454.187,96.878,454,97.064Z" transform="translate(-454 -92.399)" fill="#39393b"/></g><g transform="translate(21.424 35.319)"><path d="M466.4,115.506c0,.746,1.493,1.306,3.452,1.306,1.866,0,3.452-.56,3.452-1.306s-1.493-1.306-3.452-1.306S466.4,114.76,466.4,115.506Z" transform="translate(-466.4 -114.2)" fill="#d96c63"/></g><g transform="translate(7.524 35.319)"><path d="M451.5,116.812h.84c1.866,0,3.452-.56,3.452-1.306S454.3,114.2,452.34,114.2h-.746Z" transform="translate(-451.5 -114.2)" fill="#d96c63"/></g><g transform="translate(19.932 30.654)"><path d="M464.8,111.066c0,1.026.466,1.866,1.026,1.866s1.026-.84,1.026-1.866-.466-1.866-1.026-1.866S464.8,110.04,464.8,111.066Z" transform="translate(-464.8 -109.2)" fill="#39393b"/></g><g transform="translate(9.67 30.654)"><path d="M453.8,111.066c0,1.026.466,1.866,1.026,1.866s1.026-.84,1.026-1.866-.466-1.866-1.026-1.866S453.8,110.04,453.8,111.066Z" transform="translate(-453.8 -109.2)" fill="#39393b"/></g><g transform="translate(32.619 43.342)"><path d="M478.4,122.8c.093.093,1.4,3.265,3.358,4.1h0l.093-2.146A7.333,7.333,0,0,1,478.4,122.8Z" transform="translate(-478.4 -122.8)" fill="#39393b"/></g><g transform="translate(34.485 33.402)"><path d="M480.4,115s4.1-5.5,7.09-1.213c2.426,3.545-2.239,12.781-7.09,9.609Z" transform="translate(-480.4 -112.146)" fill="#ea9b7a"/></g><g transform="translate(34.671 36.158)"><path d="M480.973,122a.4.4,0,0,0,.373-.373,7.221,7.221,0,0,1,4.1-5.691.443.443,0,1,0-.28-.84,7.779,7.779,0,0,0-4.571,6.344c0,.28.093.56.373.56Z" transform="translate(-480.6 -115.1)" fill="#39393b"/></g><g transform="translate(35.953 38.729)"><path d="M484.983,119.669c.093,0,.28-.093.28-.187a.352.352,0,0,0-.093-.56c-.187-.093-1.679-1.306-2.892-1.026-.187.093-.373.28-.28.466s.28.373.466.28c.746-.187,1.866.56,2.239.84C484.8,119.576,484.89,119.669,484.983,119.669Z" transform="translate(-481.973 -117.855)" fill="#39393b"/></g><g transform="translate(13.238 27.912)"><path d="M461.053,116a.466.466,0,1,0,0-.933,2.866,2.866,0,0,1-2.519-1.213c1.679-3.452,3.358-6.9,3.358-7a.417.417,0,0,0-.746-.373s-1.772,3.638-3.452,7.183a.284.284,0,0,0,0,.373C457.695,114.32,458.535,116,461.053,116Z" transform="translate(-457.625 -106.261)" fill="#39393b"/></g></g></g></g></g><g clip-path="url(#a)"><g transform="translate(208 48.015)"><path d="M569.775,155.063s5.691,5.691,11.195,3.452c4.478-1.772,5.5-8.116,5.691-10.448a6.284,6.284,0,0,0,.093-.933s.28-.187.746-.466c1.026-.746,2.612-2.239,2.426-3.918-.28-2.426-4.758-1.119-4.758-1.119s.653-2.985-.653-3.825-4.011.653-4.011.653,1.4-3.638-.56-4.571c-2.985-1.306-3.918,3.172-4.1,3.452,0-.28,1.493-14.087-.933-13.34-2.052.653-3.918,12.128-4.478,15.206a4.228,4.228,0,0,0-.093.746h-.466c-1.306,0-5.224.373-5.971,3.079C563.338,146.481,569.775,155.063,569.775,155.063Z" transform="translate(-563.863 -123.969)" fill="#ea9b7a"/><g transform="translate(12.535 17.241)"><path d="M582.244,146.6a4.663,4.663,0,0,0-.466,3.079c.187.56.466.933.933,1.026a2.654,2.654,0,0,0,1.213,0,13.966,13.966,0,0,0,3.638-1.306,6.284,6.284,0,0,0,.093-.933s.28-.187.746-.466a.343.343,0,0,0-.28.093c-1.493.84-4.291,2.052-5.131,1.772-.093,0-.28-.093-.373-.373-.28-.933.466-2.8,1.4-3.918a.451.451,0,0,0,0-.653.575.575,0,0,0-.653-.093c-.933.653-3.638,2.332-4.944,1.959-.187-.093-.187-.187-.187-.187a1.272,1.272,0,0,1,.187-.933,10.293,10.293,0,0,1,1.679-2.426.343.343,0,0,0,.093-.28c0-.187,0-.28-.187-.373a.451.451,0,0,0-.653,0,11.211,11.211,0,0,0-1.679,2.426,2.652,2.652,0,0,0-.373,1.119v.653a1.232,1.232,0,0,0,.84.84C579.352,147.907,581.032,147.254,582.244,146.6Z" transform="translate(-577.3 -142.45)" fill="#d96c63"/></g><g transform="translate(9.737 17.194)"><path d="M574.953,142.68a.728.728,0,0,1,.373.373,4.269,4.269,0,0,0,.373,1.4.508.508,0,0,0,.466.28,1.489,1.489,0,0,0,.746-.28,11.6,11.6,0,0,0,2.519-2.052.343.343,0,0,1-.093.28,14.083,14.083,0,0,0-1.679,2.426c-.093.093-.187.093-.28.187a3.314,3.314,0,0,1-.84.373.705.705,0,0,0-.373.093,1.629,1.629,0,0,1-1.306-.653,2.96,2.96,0,0,1-.56-1.866.558.558,0,0,1,.653-.56Z" transform="translate(-574.3 -142.4)" fill="#d96c63"/></g><g transform="translate(3.369 15.329)"><path d="M567.871,147.77a16.531,16.531,0,0,0,3.638-.093,5.145,5.145,0,0,0,2.519-1.026,2.167,2.167,0,0,0,.84-1.772c.093-2.426-2.426-3.825-4.011-4.478a4.228,4.228,0,0,0-.093.746H570.3c1.306.466,3.638,1.679,3.638,3.638a1.337,1.337,0,0,1-.466,1.026c-1.213,1.119-4.385,1.026-5.5.933a.427.427,0,0,0-.466.373C567.405,147.49,567.592,147.77,567.871,147.77Z" transform="translate(-567.474 -140.4)" fill="#d96c63"/></g><g transform="translate(9.926 20.703)"><path d="M578.325,157.019c.187,0,.28-.093.373-.28a.391.391,0,0,0-.28-.56,4.226,4.226,0,0,1-2.612-2.426c-1.12-2.892.933-6.81.933-6.9a.48.48,0,1,0-.84-.466c-.093.187-2.239,4.385-1.026,7.65a5.3,5.3,0,0,0,3.172,2.985Z" transform="translate(-574.503 -146.161)" fill="#d96c63"/></g></g><g transform="translate(137.415 72.486)"><path d="M503.686,150.2l9.7,8.4c1.586,1.4,3.079,2.892,4.664,4.291s3.078,2.892,4.664,4.291,3.079,2.8,4.664,4.2,3.078,2.705,4.664,4.011c1.493,1.306,3.079,2.519,4.478,3.638q1.119.84,1.959,1.4l.373.28.187.093.093.093.093.093c.093.093,0,.093.093.187s.187.093.466.093a6.6,6.6,0,0,0,2.705-1.026,27.681,27.681,0,0,0,3.732-2.8,36.989,36.989,0,0,0,3.825-3.825,82.118,82.118,0,0,0,7.183-9.329c2.332-3.358,3.918-5.877,5.971-9.422a15.68,15.68,0,0,0,14.087,5.411,124.8,124.8,0,0,1-5.411,12.594A97.087,97.087,0,0,1,564.7,185.09a53.625,53.625,0,0,1-4.664,5.877,51.138,51.138,0,0,1-6.064,5.691,28.09,28.09,0,0,1-3.918,2.519,32.949,32.949,0,0,1-4.851,2.052,19.883,19.883,0,0,1-5.877.933,17.768,17.768,0,0,1-6.25-.84,26.373,26.373,0,0,1-2.892-1.026l-.653-.28-.56-.28-.56-.28a2.038,2.038,0,0,1-.466-.28c-1.306-.746-2.425-1.4-3.545-2.052-2.146-1.4-4.011-2.705-5.877-4.011-1.866-1.4-3.638-2.705-5.411-4.1s-3.545-2.8-5.224-4.2-3.358-2.8-5.038-4.291c-1.679-1.4-3.358-2.892-4.944-4.291-1.679-1.493-3.265-2.892-4.851-4.385l-2.426-2.239-1.213-1.119-1.213-1.213Z" transform="translate(-488.2 -150.2)" fill="#faaf3a"/></g><g transform="translate(143.722 96.984)"><path d="M513.375,191.61a.705.705,0,0,1-.373-.093c-6.344-4.478-17.725-13.9-17.818-13.993a.6.6,0,1,1,.746-.933c.093.093,11.381,9.515,17.725,13.9a.608.608,0,0,1,.187.84A.513.513,0,0,1,513.375,191.61Z" transform="translate(-494.961 -176.461)" fill="#c77e2e"/><g transform="translate(0.112 3.19)"><path d="M500.136,181.671h0l-4.571-.653a.567.567,0,1,1,.187-1.119l4.478.653a.548.548,0,0,1,.466.653A.6.6,0,0,1,500.136,181.671Z" transform="translate(-495.08 -179.88)" fill="#c77e2e"/></g></g><g transform="translate(209.026 81.78)"><path d="M579.271,167.94a.569.569,0,0,0,.28-.653.642.642,0,0,0-.746-.466c-8.489,1.866-12.687-6.25-12.687-6.344a.708.708,0,0,0-.84-.28h0a.708.708,0,0,0-.28.84c0,.093,4.664,8.956,13.993,6.9Z" transform="translate(-564.963 -160.163)" fill="#c77e2e"/></g><g transform="translate(218.168 82.153)"><path d="M575.544,168.154l.28-.28,2.8-6.53a.564.564,0,1,0-1.026-.466l-2.8,6.53a.588.588,0,0,0,.28.746C575.171,168.247,575.357,168.154,575.544,168.154Z" transform="translate(-574.763 -160.563)" fill="#c77e2e"/></g><g transform="translate(213.877 81.889)"><path d="M570.291,161.791a1.043,1.043,0,1,0,.466-1.4A1.007,1.007,0,0,0,570.291,161.791Z" transform="translate(-570.162 -160.28)" fill="#c77e2e"/></g><g transform="translate(186.187 103.196)"><path d="M541.432,190.378a.513.513,0,0,0,.28-.466,25.534,25.534,0,0,1,1.773-5.877.626.626,0,1,0-1.119-.56,24.009,24.009,0,0,0-1.866,6.25.548.548,0,0,0,.466.653A.424.424,0,0,0,541.432,190.378Z" transform="translate(-540.48 -183.119)" fill="#c77e2e"/><g transform="translate(1.679 0.617)"><path d="M545.377,189.116a.091.091,0,0,0,.093-.093.59.59,0,0,0,.093-.84,11.14,11.14,0,0,1-2.052-3.918.622.622,0,1,0-1.213.28,11.8,11.8,0,0,0,2.332,4.478A.7.7,0,0,0,545.377,189.116Z" transform="translate(-542.28 -183.78)" fill="#c77e2e"/></g></g></g></g></g></g><g transform="translate(0 74.825)"><g transform="translate(0 302.252)"><ellipse cx="135.083" cy="8.209" rx="135.083" ry="8.209" fill="#ced3e6"/></g><g transform="translate(17.632)"><g transform="translate(88.255 73.791)"><path d="M176.11,217.337l13.62,49.91-4.851-5.6a28.11,28.11,0,0,0,6.157,2.239,37.974,37.974,0,0,0,7.463.933c2.612.093,5.411.093,8.209,0s5.691-.373,8.583-.56h0a7.805,7.805,0,0,1,1.866,15.486c-2.985.466-6.064.933-9.142,1.306-3.172.373-6.344.653-9.7.746a65.4,65.4,0,0,1-10.355-.56,42.633,42.633,0,0,1-10.822-2.985,8.428,8.428,0,0,1-4.664-5.131l-.187-.56L155.96,223.4a10.532,10.532,0,1,1,19.964-6.717A1.73,1.73,0,0,1,176.11,217.337Z" transform="translate(-155.404 -209.504)" fill="#ea9b7a"/></g><g transform="translate(21.539)"><g transform="translate(0 100.001)"><g transform="translate(19.427 133.043)"><path d="M178.026,409.68a1.821,1.821,0,0,1-.653-.093l-71.459-25.841a1.829,1.829,0,0,1,1.213-3.452l71.459,25.748a1.921,1.921,0,0,1,1.119,2.332A1.764,1.764,0,0,1,178.026,409.68Z" transform="translate(-104.714 -380.214)" fill="#c77e2e"/></g><g transform="translate(16.406 132.634)"><path d="M103.271,409.651a1.793,1.793,0,0,1-1.679-1.213,1.837,1.837,0,0,1,1.119-2.332L175.1,379.892a1.829,1.829,0,0,1,1.213,3.452l-72.392,26.214A1.383,1.383,0,0,1,103.271,409.651Z" transform="translate(-101.475 -379.775)" fill="#c77e2e"/></g><g transform="translate(10.232 103.271)"><path d="M183.708,453.623a3.111,3.111,0,0,1-3.079-2.705l-12.874-96.461H113.648l-12.687,96.461a3.061,3.061,0,1,1-6.064-.84l13.06-99.073a3.121,3.121,0,0,1,3.079-2.705h59.425a3.044,3.044,0,0,1,3.079,2.705l13.247,99.073a3.063,3.063,0,0,1-2.612,3.452A1.014,1.014,0,0,1,183.708,453.623Z" transform="translate(-94.857 -348.3)" fill="#faaf3a"/></g><path d="M152.467,343.95H113.845c-12.221,0-25.375-6.717-27.24-18.751a225.386,225.386,0,0,1-2.426-46.178,56.094,56.094,0,0,1,21.363-41.42h0s7.743,33.584-1.959,80.042C107.222,335.18,152.467,343.95,152.467,343.95Z" transform="translate(-83.889 -237.6)" fill="#faaf3a"/></g><g transform="translate(16.631)"><g transform="translate(8.38)"><path d="M146.243,139.636s-4.571-11.1-16.7-8.956c-8.489,1.493-12.128,12.034-11.568,28.36.746,23.789-7.277,38.062-7.277,38.062l10.635,2.426C121.242,199.621,148.389,158.854,146.243,139.636Z" transform="translate(-110.7 -130.405)" fill="#39393b"/></g><g transform="translate(30.007 153.456)"><path d="M245.1,408.713H227.841s-4.011-19.124-5.317-29.853-2.052-36.2-2.052-36.2-13.714,4.478-42.54,2.8c-63.716-3.732-39.555-50.563-39.555-50.563,2.146,2.985,15.3.933,24.348,2.332,27.707,2.612,51.682,13.527,66.049,19.777a70.843,70.843,0,0,1,9.236,4.758c3.452,2.146,5.691,8.676,7,17.165C249.018,364.494,245.1,408.713,245.1,408.713Z" transform="translate(-133.882 -294.9)" fill="#39393b"/><g transform="translate(4.548 0.723)"><path d="M230.407,399.529a.522.522,0,0,1-.56-.466c-2.519-12.314-3.358-27.614-4.011-39.928-.56-10.168-1.119-19.871-2.426-20.99-1.026-.933-5.5-.187-11.1.746-11.1,1.866-27.893,4.664-46.458.28-10.075-2.332-17.538-7.277-22.016-14.553-7.836-12.594-4.291-28.267-4.2-28.453a.622.622,0,0,1,1.213.28c0,.187-3.452,15.3,4.1,27.52,4.385,7,11.475,11.754,21.27,13.993,18.285,4.291,34.89,1.493,45.9-.373,6.624-1.119,10.542-1.772,12.034-.466,1.586,1.4,2.052,8.489,2.8,21.83.653,12.314,1.493,27.52,4.011,39.741a.642.642,0,0,1-.466.746Z" transform="translate(-138.757 -295.675)" fill="#585859"/></g><g transform="translate(91.795 103.253)"><path d="M252.076,407.185h0l-19.218-.373a.608.608,0,1,1,.093-1.213l19.218.373a.525.525,0,0,1,.56.653C252.729,407,252.449,407.185,252.076,407.185Z" transform="translate(-232.281 -405.581)" fill="#585859"/></g><g transform="translate(94.104 113.813)"><g transform="translate(0.881)"><path d="M251.466,439.01H239.338l-2.332-14.273L235.7,416.9h15.113l.28,7.836Z" transform="translate(-235.7 -416.9)" fill="#ea9b7a"/></g><g transform="translate(2.187 7.836)"><path d="M251.56,439.573H239.432l-1.773-10.635-.56-3.638h14.087l.093,3.732Z" transform="translate(-237.1 -425.3)" fill="#faaf3a"/><path d="M251.28,429.032l-13.62-.093-.56-3.638h14.087Z" transform="translate(-237.1 -425.3)" fill="#c77e2e"/></g><g transform="translate(0 18.845)"><path d="M281.442,459.583H235.357a5.036,5.036,0,0,1-.56-2.519c-.28-3.918.933-10.075,1.586-13.993.093-.466.093-.84.187-1.306a10.786,10.786,0,0,0,.093-1.586c0-3.172,2.8-2.612,2.8-2.612,4.664,4.571,9.889-2.239,13.06,0a2.763,2.763,0,0,0,.373.28c.28.187.653.56,1.213.933.746.653,1.866,1.586,3.358,2.985,3.638,3.265,9.889,5.5,15.206,7.65.653.28,1.306.56,1.866.84.466.187.84.466,1.213.653,4.291,2.332,5.691,4.571,5.97,6.157A2.962,2.962,0,0,1,281.442,459.583Z" transform="translate(-234.756 -437.101)" fill="#0875f7"/><g transform="translate(13.443 0.559)"><path d="M276.811,450.854c-1.213.933-3.825,2.8-5.97,2.8h-.28c-1.493-.093-7-2.8-11.475-5.318-2.519-1.4-4.851-2.8-6.53-3.918-2.8-1.772-3.265-2.519-3.358-2.985-.373-1.772,2.612-3.079,4.664-3.732.28.187.653.56,1.213.933-2.612.746-4.758,1.866-4.664,2.426.28.56,2.985,2.612,9.515,6.157,4.944,2.705,9.7,4.944,10.728,5.038,1.4.093,3.545-1.213,4.851-2.146C275.972,450.387,276.438,450.667,276.811,450.854Z" transform="translate(-249.166 -437.7)" fill="#084fc7"/></g><g transform="translate(0.041 19.963)"><path d="M281.445,461.019H235.36a5.035,5.035,0,0,1-.56-2.519h47.018A3.187,3.187,0,0,1,281.445,461.019Z" transform="translate(-234.8 -458.5)" fill="#084fc7"/></g><g transform="translate(1.627 4.57)"><path d="M240.232,459.912h-1.4a10.267,10.267,0,0,0,2.519-7.37,12.95,12.95,0,0,0-4.851-9.236c.093-.466.093-.84.187-1.306a14.107,14.107,0,0,1,5.784,10.448A11.142,11.142,0,0,1,240.232,459.912Z" transform="translate(-236.5 -442)" fill="#084fc7"/></g><g transform="translate(21.2 5.019)"><path d="M258.245,444.738a.709.709,0,0,1-.746-.56.827.827,0,0,1,.56-.933l2.892-.746a.769.769,0,1,1,.373,1.493l-2.892.746Z" transform="translate(-257.481 -442.481)" fill="#fff"/></g><g transform="translate(18.401 2.593)"><path d="M255.245,442.138a.709.709,0,0,1-.746-.56.827.827,0,0,1,.56-.933l2.892-.746a.769.769,0,0,1,.373,1.493l-2.892.746Z" transform="translate(-254.481 -439.881)" fill="#fff"/></g><g transform="translate(24.092 6.698)"><path d="M261.345,446.538a.709.709,0,0,1-.746-.56.827.827,0,0,1,.56-.933l2.892-.746a.769.769,0,0,1,.373,1.493l-2.892.746Z" transform="translate(-260.581 -444.281)" fill="#fff"/></g><g transform="translate(26.984 8.284)"><path d="M264.445,448.238a.709.709,0,0,1-.746-.56.827.827,0,0,1,.56-.933L267.15,446a.769.769,0,1,1,.373,1.493l-2.892.746Z" transform="translate(-263.681 -445.981)" fill="#fff"/></g><g transform="translate(30.156 9.777)"><path d="M267.845,449.838a.709.709,0,0,1-.746-.56.827.827,0,0,1,.56-.933l2.892-.746a.769.769,0,0,1,.373,1.493l-2.892.746Z" transform="translate(-267.081 -447.581)" fill="#fff"/></g><g transform="translate(33.514 11.083)"><path d="M271.445,451.238a.709.709,0,0,1-.746-.56.827.827,0,0,1,.56-.933L274.15,449a.769.769,0,1,1,.373,1.493l-2.892.746Z" transform="translate(-270.681 -448.981)" fill="#fff"/></g></g></g></g><g transform="translate(0 8.066)"><g transform="translate(2.671 125.313)"><path d="M104.6,278.529s-.56,3.732,4.478,4.758l51.962,1.772a5.868,5.868,0,0,0,2.892-6.157C163.837,279,141.914,266.682,104.6,278.529Z" transform="translate(-104.58 -273.379)" fill="#084fc7"/></g><g transform="translate(3.343 126.341)"><path d="M161.74,295.862c-26.961,14.833-56.44,2.892-56.44,2.892a83.858,83.858,0,0,0,3.265-12.407,105.38,105.38,0,0,0,1.586-11.008c11.475-.653,39.555-1.866,50.563.746l.093,4.385Z" transform="translate(-105.3 -274.481)" fill="#ea9b7a"/><g transform="translate(34.366 11.486)"><path d="M144.248,289.505c-.187,1.4-.84,2.425-1.4,2.332s-.84-1.306-.653-2.705.84-2.426,1.4-2.332C144.155,286.986,144.435,288.106,144.248,289.505Z" transform="translate(-142.138 -286.794)" fill="#d96c63"/></g><g transform="translate(3.265)"><path d="M161.135,280.563c-11.475-.653-34.051-.933-52.335,5.784a105.378,105.378,0,0,0,1.586-11.008c11.475-.653,39.555-1.866,50.563.746Z" transform="translate(-108.8 -274.481)" fill="#d96c63"/></g></g><g transform="translate(0 51.786)"><g transform="translate(0.487 0.595)"><path d="M173.476,253.879a9.682,9.682,0,0,1-.373.933c-.093.093-.093.187-.187.373a21.972,21.972,0,0,1-5.6,6.624,9.879,9.879,0,0,1-1.119.933c-.653.56-1.306,1.026-1.679,1.306a4.268,4.268,0,0,1-.56.373v.093a1.821,1.821,0,0,1-.093.653c-.093.84-.093,1.866-.187,2.985,0,.933-.093,1.959-.093,3.079v2.519c-15.206-6.81-46.645-2.519-59.239-.373.187-1.119.466-2.146.653-3.172a91.624,91.624,0,0,0,1.586-13.06,141.279,141.279,0,0,0-1.4-23.509c-.093-.56-.187-1.119-.28-1.772-.093-.373-.093-.746-.187-1.119-.466-2.8-.933-5.691-1.493-8.4-2.519-11.941-.746-24.535,11.381-26.028.84-.093,1.772-.187,2.612-.28,5.691-.653,10.448-.84,11.754-.84h.373l23.416,6.81,2.239.653c1.306.373,2.426.84,3.545,1.213a8.212,8.212,0,0,0,1.4.466c1.119.466,2.146.84,3.079,1.213a28.678,28.678,0,0,1,4.571,2.519c5.131,3.638,4.385,7.743,4.2,15.952v1.493c0,1.026,0,2.052.093,3.172.093,1.493.187,3.079.373,4.571.093.56.093,1.213.187,1.772s.093,1.119.187,1.679C173.569,243.8,174.782,250.054,173.476,253.879Z" transform="translate(-102.239 -195.2)" fill="#0875f7"/></g><g transform="translate(64.07 29.476)"><path d="M176.37,226.2v1.4l-4.944,3.079a.841.841,0,0,1-.466.093.513.513,0,0,1-.466-.28.723.723,0,0,1,.187-.933l5.224-3.265A.41.41,0,0,1,176.37,226.2Z" transform="translate(-170.396 -226.159)" fill="#084fc7"/></g><g transform="translate(36.944 50.429)"><path d="M141.954,254.012a.713.713,0,0,1-.466-.187.623.623,0,0,1,.093-.933l4.571-4.1a.663.663,0,1,1,.84,1.026l-4.571,4.1A1.014,1.014,0,0,1,141.954,254.012Z" transform="translate(-141.319 -248.619)" fill="#084fc7"/></g><g transform="translate(66.61 40.522)"><path d="M177.393,239.586l-3.172,2.8a.676.676,0,0,1-.933,0,.623.623,0,0,1,.093-.933L177.206,238A8.217,8.217,0,0,1,177.393,239.586Z" transform="translate(-173.119 -238)" fill="#084fc7"/></g><g transform="translate(28.119 38.26)"><path d="M131.991,236.624a.617.617,0,0,1-.093-.56.667.667,0,0,1,.84-.466l5.971,1.4a.679.679,0,0,1-.373,1.306l-5.971-1.4A1.288,1.288,0,0,1,131.991,236.624Z" transform="translate(-131.859 -235.575)" fill="#084fc7"/></g><g transform="translate(6.252 45.671)"><path d="M109.054,248.912a.713.713,0,0,1-.466-.187.623.623,0,0,1,.093-.933l4.571-4.1a.663.663,0,0,1,.84,1.026l-4.571,4.1A4.037,4.037,0,0,0,109.054,248.912Z" transform="translate(-108.419 -243.519)" fill="#084fc7"/></g><g transform="translate(60.156 49.592)"><path d="M166.2,248.168c.093-.187.187-.373.373-.373a.682.682,0,0,1,.933.373l2.426,5.691a.71.71,0,1,1-1.306.56l-2.426-5.691Z" transform="translate(-166.2 -247.722)" fill="#084fc7"/></g><g transform="translate(67.339 58.224)"><path d="M178.285,258.024a9.675,9.675,0,0,1-.373.933c-.093.093-.093.187-.187.373l-3.358-1.026a1.288,1.288,0,0,1-.373-.28,1.183,1.183,0,0,1-.093-.56.667.667,0,0,1,.84-.466Z" transform="translate(-173.9 -256.975)" fill="#084fc7"/></g><g transform="translate(48.178 59.74)"><path d="M157.969,258.6a.685.685,0,0,1,.56.187.718.718,0,0,1,.093.933l-4.1,4.571a.663.663,0,0,1-1.026-.84l4.1-4.571A.5.5,0,0,1,157.969,258.6Z" transform="translate(-153.361 -258.6)" fill="#084fc7"/></g><g transform="translate(49.797 44.623)"><path d="M155.659,246.971a.513.513,0,0,1-.466-.28.723.723,0,0,1,.187-.933l5.224-3.265a.673.673,0,0,1,.746,1.119l-5.224,3.265A.41.41,0,0,1,155.659,246.971Z" transform="translate(-155.096 -242.396)" fill="#084fc7"/></g><g transform="translate(46.349 28.581)"><path d="M158.77,226.04a1.326,1.326,0,0,1,.187.56.721.721,0,0,1-.746.653l-6.157-.653a.7.7,0,0,1,.093-1.4l6.157.653A.341.341,0,0,1,158.77,226.04Z" transform="translate(-151.4 -225.2)" fill="#084fc7"/></g><g transform="translate(44.763 15.521)"><path d="M149.7,211.76a.62.62,0,0,1,.373-.466.647.647,0,0,1,.933.28l2.892,5.411a.689.689,0,0,1-1.213.653l-2.892-5.411A.7.7,0,0,1,149.7,211.76Z" transform="translate(-149.7 -211.2)" fill="#084fc7"/></g><g transform="translate(63.631 65.21)"><path d="M171.954,266.457a9.884,9.884,0,0,1-1.119.933l-.84-2.052a.416.416,0,0,1,0-.466.728.728,0,0,1,.373-.373.764.764,0,0,1,.933.373Z" transform="translate(-169.925 -264.464)" fill="#084fc7"/></g><g transform="translate(9.243 55.749)"><path d="M111.695,255.328a.6.6,0,0,1,0-.56.589.589,0,0,1,.84-.373l5.784,2.052a.65.65,0,1,1-.466,1.213l-5.784-2.052C111.882,255.607,111.788,255.421,111.695,255.328Z" transform="translate(-111.625 -254.322)" fill="#084fc7"/></g><g transform="translate(6.812 64.591)"><path d="M114.319,263.8a.713.713,0,0,1,.466.187.623.623,0,0,1-.093.933l-4.571,4.1a.663.663,0,1,1-.84-1.026l4.571-4.1A.841.841,0,0,1,114.319,263.8Z" transform="translate(-109.019 -263.8)" fill="#084fc7"/></g><g transform="translate(13.213 69.704)"><path d="M123.175,270.6a.617.617,0,0,1,.093.56c-.093.373-.373.653-.746.56l-6.064-1.026a.714.714,0,0,1,.28-1.4l6.064,1.026C122.9,270.418,123.082,270.511,123.175,270.6Z" transform="translate(-115.881 -269.281)" fill="#084fc7"/></g><g transform="translate(25.507 12.532)"><path d="M129.1,208.839a.617.617,0,0,1,.093-.56.723.723,0,0,1,.933-.187l5.224,3.358a.673.673,0,0,1-.746,1.119l-5.224-3.358C129.284,209.119,129.191,208.933,129.1,208.839Z" transform="translate(-129.059 -207.996)" fill="#084fc7"/></g><g transform="translate(58.497 17.223)"><path d="M166.827,213.095a.6.6,0,0,1,.56,0,.589.589,0,0,1,.373.84l-2.052,5.784a.65.65,0,0,1-1.213-.466l2.052-5.784C166.547,213.282,166.734,213.188,166.827,213.095Z" transform="translate(-164.422 -213.025)" fill="#084fc7"/></g><g transform="translate(53.83 9.271)"><path d="M163.786,204.966l-3.172,4.1a.663.663,0,1,1-1.026-.84l2.892-3.732A11.316,11.316,0,0,1,163.786,204.966Z" transform="translate(-159.419 -204.5)" fill="#084fc7"/></g><g transform="translate(27.005 64.195)"><path d="M130.7,265.264c.093.187.187.373.466.373h.28a32.38,32.38,0,0,1,20.524,1.12,34.271,34.271,0,0,0,13.9,2.985,1.588,1.588,0,0,1,.093-.653V269a4.269,4.269,0,0,0,.56-.373,34.063,34.063,0,0,1-14.087-2.892,33.642,33.642,0,0,0-21.363-1.119A.471.471,0,0,0,130.7,265.264Z" transform="translate(-130.664 -263.375)" fill="#084fc7"/></g><g transform="translate(27.225 0.595)"><path d="M154.689,202.01c-1.306,2.052-4.011,4.385-9.515,3.918-7.556-.56-12.5-7.743-14.273-10.728h.373Z" transform="translate(-130.9 -195.2)" fill="#084fc7"/></g><g transform="translate(27.003)"><path d="M146.65,215.308c.187,0,.466.093.653.093a5.944,5.944,0,0,0,5.038-1.772c3.638-4.011,2.146-13.06,2.052-13.434a.567.567,0,0,0-1.119.187c0,.093,1.493,8.862-1.772,12.5a4.512,4.512,0,0,1-4.1,1.4c-7.37-.56-15.579-19.218-15.673-19.4a.564.564,0,1,0-1.026.466C131.071,196.09,138.814,213.722,146.65,215.308Z" transform="translate(-130.663 -194.563)" fill="#fff"/></g><g transform="translate(65.662 13.469)"><path d="M172.193,209a41.084,41.084,0,0,0,4.291,20.617c-.093-1.4-.093-2.8-.093-4.1v-.653C176.578,216.743,177.418,212.638,172.193,209Z" transform="translate(-172.102 -209)" fill="#ea9b7a"/></g><g transform="translate(0.487 1.434)"><path d="M124.405,217.557c-2.705,10.355-12.5,18.658-19.218,16.139-.093-.56-.187-1.119-.28-1.772-.093-.373-.093-.746-.187-1.119-.466-2.8-.933-5.691-1.493-8.4-2.519-11.941-.746-24.535,11.381-26.028.84-.093,1.772-.187,2.612-.28C123.286,198.712,127.577,205.615,124.405,217.557Z" transform="translate(-102.239 -196.1)" fill="#ea9b7a"/></g><g transform="translate(0 6.021)"><path d="M125.77,209.957l15.766,57.559-5.6-6.437a26.044,26.044,0,0,0,7.183,2.519,61.527,61.527,0,0,0,8.583,1.119c3.079.187,6.25.093,9.422,0,3.265-.093,6.53-.373,9.889-.653h0a8.979,8.979,0,0,1,2.146,17.818c-3.452.56-7,1.119-10.635,1.493s-7.277.746-11.195.84a74.953,74.953,0,0,1-11.941-.653,48.157,48.157,0,0,1-12.5-3.452,9.6,9.6,0,0,1-5.411-5.877l-.187-.56-18.938-56.626A12.154,12.154,0,0,1,125.4,209.3C125.676,209.584,125.77,209.77,125.77,209.957Z" transform="translate(-101.717 -201.017)" fill="#ea9b7a"/></g><g transform="translate(30.714 66.177)"><g transform="translate(0 1.306)"><path d="M135.069,270.165c-.187,0-.28-.093-.373-.28a.492.492,0,0,1,.187-.653,20.009,20.009,0,0,1,7.183-2.332.466.466,0,1,1,0,.933,20.34,20.34,0,0,0-6.81,2.146C135.162,270.165,135.162,270.165,135.069,270.165Z" transform="translate(-134.64 -266.9)" fill="#d96c63"/></g><g transform="translate(0.522)"><path d="M140.8,268.019a.343.343,0,0,1-.28-.093,11.872,11.872,0,0,0-4.851-1.493.466.466,0,1,1,0-.933,12.11,12.11,0,0,1,5.224,1.679.577.577,0,0,1,.187.653C141.077,267.926,140.984,268.019,140.8,268.019Z" transform="translate(-135.2 -265.5)" fill="#d96c63"/></g></g><g transform="translate(31.899 23.087)"><path d="M154.932,234.507c7,1.4,9.982-5.784,10.075-5.877a.564.564,0,1,0-1.026-.466c-.093.28-2.705,6.437-8.769,5.224-6.344-1.306-18.191-13.807-18.285-13.9a.594.594,0,0,0-.84.84C136.46,220.793,148.215,233.2,154.932,234.507Z" transform="translate(-135.911 -219.311)" fill="#084fc7"/></g></g><g transform="translate(23.07)"><g transform="translate(1.093 0.615)"><path d="M143.367,183.826S132.172,181.681,129,170.393c-2.985-10.728-.653-16.326,2.426-22.11,2.332-4.385,9.8-10.262,20.244-8.116,10.542,2.146,18.471,7.556,19.591,16.232C173.593,172.632,160.439,192.5,143.367,183.826Z" transform="translate(-127.618 -139.711)" fill="#39393b"/></g><path d="M129.482,172.121a.513.513,0,0,1-.466-.28,25.377,25.377,0,0,1-1.026-19.964A18.29,18.29,0,0,1,138.811,140.4a17.346,17.346,0,0,1,7.277-1.306.608.608,0,0,1-.093,1.213h0a20.09,20.09,0,0,0-6.9,1.306,17.1,17.1,0,0,0-10.169,10.728,24.406,24.406,0,0,0,.933,19.031.608.608,0,0,1-.187.84C129.668,172.121,129.575,172.121,129.482,172.121Z" transform="translate(-126.446 -139.051)" fill="#faaf3a"/><g transform="translate(2.563 4.909)"><g transform="translate(34.616 27.299)"><path d="M167.7,174.625s3.638-2.892,4.571.933-1.772,10.542-5.97,8.489Z" transform="translate(-166.3 -173.577)" fill="#d96c63"/></g><g transform="translate(28.546 35.25)"><path d="M163.718,182.193a5.808,5.808,0,0,0-3.825,4.2,5.47,5.47,0,0,0,10.728,2.146,5.548,5.548,0,0,0-2.239-5.6,5.031,5.031,0,0,0-2.052-.84h-.093a.857.857,0,0,0,.187.933,8.269,8.269,0,0,1,1.586.746,4.528,4.528,0,0,1,1.772,4.571,4.665,4.665,0,1,1-9.142-1.866,4.623,4.623,0,0,1,3.452-3.545Z" transform="translate(-159.794 -182.1)" fill="#faaf3a"/></g><g transform="translate(3.364 35.81)"><path d="M154.443,191.562l-1.493,9.515s-7.09,7.277-20.15-5.784c3.545-2.612,4.851-8.676,4.385-12.594a23.621,23.621,0,0,1,2.612,2.052,11.648,11.648,0,0,0,1.119.746C144.275,187.924,149.592,190.909,154.443,191.562Z" transform="translate(-132.8 -182.7)" fill="#ea9b7a"/><g transform="translate(6.997 2.052)"><path d="M154.946,191.71l-.746,4.478c-3.918-1.772-10.822-5.5-13.9-11.288.373.28.746.466,1.119.746C144.778,188.072,150.1,191.057,154.946,191.71Z" transform="translate(-140.3 -184.9)" fill="#39393b"/></g></g><g transform="translate(7.842 4.497)"><path d="M169.318,170.652c-.187,1.026-.373,1.959-.56,2.892q-.28,1.539-.56,2.8c-1.4,6.624-2.612,10.169-4.571,11.475-9.7,6.717-25.561-6.81-26.028-7.277h0v-2.332a57.516,57.516,0,0,1,2.985-17.538,13.563,13.563,0,0,1,11.195-11.381c6.064-.933,10.542,2.612,13.434,4.1C169.318,155.819,171,162.256,169.318,170.652Z" transform="translate(-137.6 -149.135)" fill="#ea9b7a"/></g><g transform="translate(10.86)"><path d="M140.989,154.376s6.81-13.06,20.43-9.422,14.273,9.982,14.553,13.154-7-2.426-7-2.426-.28,6.344-2.705,4.385c-2.985-2.426-6.344-7.556-6.344-7.556s-8.116,7.93-15.766,5.784C139.776,157.082,140.989,154.376,140.989,154.376Z" transform="translate(-140.835 -144.314)" fill="#39393b"/></g><g transform="translate(24.494 36.79)"><path d="M158.668,185.849a4.624,4.624,0,0,1-3.079-1.306.462.462,0,0,1,.653-.653,3.344,3.344,0,0,0,3.358.84.569.569,0,0,1,.653.28.627.627,0,0,1-.28.653A8.7,8.7,0,0,1,158.668,185.849Z" transform="translate(-155.45 -183.75)" fill="#d96c63"/></g><g transform="translate(23.598 30.959)"><path d="M154.5,177.5s6.53,1.959,9.982,1.959c0,0-1.679,4.851-6.53,3.172A5.025,5.025,0,0,1,154.5,177.5Z" transform="translate(-154.489 -177.5)" fill="#fff"/></g><g transform="translate(34.305 17.333)"><path d="M167.4,162.9s-1.679-.187-1.4,1.493,4.011.653,5.784,3.918C171.782,168.31,173.554,164.859,167.4,162.9Z" transform="translate(-165.966 -162.893)" fill="#39393b"/></g><g transform="translate(22.022 15.773)"><path d="M158.957,161.295a1.223,1.223,0,0,1,.746,1.959c-.933,1.4-3.918-.933-6.9,1.4C152.893,164.56,152.613,160.642,158.957,161.295Z" transform="translate(-152.8 -161.221)" fill="#39393b"/></g><g transform="translate(18.181 25.249)"><path d="M155.789,173.731c-.187.746-1.866,1.119-3.825.653-1.959-.373-3.452-1.4-3.265-2.146s1.866-1.119,3.825-.653C154.39,172.052,155.882,172.985,155.789,173.731Z" transform="translate(-148.683 -171.379)" fill="#d96c63"/></g><g transform="translate(9.046 16.825)"><g transform="translate(30.141 10.403)"><path d="M176.611,174.433l-5.317-.933c0,.187-.093.466-.093.653v.093l5.317.933a.513.513,0,0,0,.466-.28A.427.427,0,0,0,176.611,174.433Z" transform="translate(-171.2 -173.5)" fill="#fff"/></g><g transform="translate(7.98)"><path d="M160.837,169.113a2.583,2.583,0,0,0-.093-.84,7.259,7.259,0,0,0-1.772-3.825,6.727,6.727,0,0,0-3.452-1.959h-.093a6.644,6.644,0,0,0-7.37,3.732c-.093.28-.187.466-.28.746-.093.187-.093.466-.187.653a6.651,6.651,0,0,0,.84,4.851,7.044,7.044,0,0,0,1.026,1.306,6.568,6.568,0,0,0,3.265,1.772,6.632,6.632,0,0,0,7.836-5.224h0A1.692,1.692,0,0,0,160.837,169.113ZM153,174.9h-.093a5.9,5.9,0,0,1-3.825-2.8,6.143,6.143,0,0,1-.653-4.1l.28-.84v-.093a5.869,5.869,0,0,1,5.131-3.732,9.594,9.594,0,0,1,1.586.093,5.808,5.808,0,0,1,4.571,6.9A5.943,5.943,0,0,1,153,174.9Z" transform="translate(-147.445 -162.349)" fill="#fff"/></g><g transform="translate(23.552 3.313)"><path d="M173.8,166.646l-.56-.28c-.187-.093-.466-.187-.653-.28a1.014,1.014,0,0,0-.466-.093,3.173,3.173,0,0,0-.933-.093h-1.119a7.1,7.1,0,0,0-2.8.933,6.7,6.7,0,0,0-2.239,2.332,2.793,2.793,0,0,0-.373.746h0a5.258,5.258,0,0,0-.373,1.119,6.544,6.544,0,0,0,2.426,6.624,9.4,9.4,0,0,0,2.146,1.119c.093,0,.28.093.373.093h.187a6.426,6.426,0,0,0,1.866.093h.28a2.724,2.724,0,0,0,.84-.187,4.4,4.4,0,0,0,1.4-.56,6.964,6.964,0,0,0,3.452-4.571A6.441,6.441,0,0,0,173.8,166.646Zm2.705,7.09c0,.093-.093.28-.093.373-.093.187-.093.373-.187.56a5.683,5.683,0,0,1-2.426,2.892,3.271,3.271,0,0,1-1.306.56,2.724,2.724,0,0,1-.84.187h-.28a4.143,4.143,0,0,1-1.866-.093h-.28a6.738,6.738,0,0,1-2.426-1.306l-.28-.28a5.575,5.575,0,0,1-1.493-5.224,4.619,4.619,0,0,1,.373-1.213A5.481,5.481,0,0,1,168.3,167.3a5.554,5.554,0,0,1,2.519-.56h.466c.28,0,.466.093.746.093.187,0,.373.093.56.093.28.093.466.187.746.28l.56.28A5.937,5.937,0,0,1,176.51,173.736Z" transform="translate(-164.137 -165.9)" fill="#fff"/></g><g transform="translate(0 2.576)"><path d="M139.179,167.713a.091.091,0,0,1-.093-.093.352.352,0,0,1-.093-.56c2.612-4.1,9.049-.466,9.049-.373a.4.4,0,1,1-.466.653c-.093,0-5.784-3.358-8.023.093C139.459,167.713,139.273,167.806,139.179,167.713Z" transform="translate(-138.891 -165.11)" fill="#fff"/></g></g><g transform="translate(29.823 22.673)"><path d="M164.649,170.467c-.093,0-.187-.093-.28-.187-.84-1.306-2.705-.746-2.705-.746a.385.385,0,1,1-.187-.746,3.129,3.129,0,0,1,3.545,1.026c.093.187.093.466-.093.56A.343.343,0,0,1,164.649,170.467Z" transform="translate(-161.162 -168.618)" fill="#fff"/></g><g transform="translate(35.358 28.8)" opacity="0.8"><path d="M170.645,175.292q-.28,1.539-.56,2.8c-1.772-.466-3.079-1.306-2.985-2.052C167.286,175.292,168.872,175.012,170.645,175.292Z" transform="translate(-167.095 -175.186)" fill="#d96c63"/></g><g transform="translate(24.352 21.511)"><path d="M157.539,169.544c-.187,1.026-.84,1.866-1.493,1.679-.56-.093-.933-1.119-.653-2.146.187-1.026.84-1.866,1.493-1.679C157.446,167.585,157.819,168.518,157.539,169.544Z" transform="translate(-155.298 -167.372)" fill="#39393b"/><g transform="translate(10.635 2.146)"><path d="M168.939,171.844c-.187,1.026-.84,1.866-1.493,1.679-.56-.093-.933-1.119-.653-2.146.187-1.026.84-1.866,1.493-1.679C168.846,169.791,169.125,170.818,168.939,171.844Z" transform="translate(-166.698 -169.672)" fill="#39393b"/></g><g transform="translate(5.404 1.332)"><path d="M163.058,174.677a4.785,4.785,0,0,0,.933.093c.093,0,.28-.093.28-.187.093-.093.093-.187.093-.373l-.653-5.038c0-.28-.28-.373-.466-.373-.28,0-.373.28-.373.466l.653,4.478a3.737,3.737,0,0,1-1.679-.746.466.466,0,0,0-.56.746A3.3,3.3,0,0,0,163.058,174.677Z" transform="translate(-161.091 -168.8)" fill="#39393b"/></g></g><g transform="translate(7.655 32.265)"><path d="M141.785,178.9c-.093.093-2.146,3.079-4.385,3.638h0v-2.332A8.039,8.039,0,0,0,141.785,178.9Z" transform="translate(-137.4 -178.9)" fill="#39393b"/></g><g transform="translate(2.98 20.484)"><path d="M140.982,170.216s-3.079-6.624-7.183-2.705c-3.358,3.172-.373,13.9,5.317,11.568Z" transform="translate(-132.388 -166.271)" fill="#ea9b7a"/></g><g transform="translate(0 30.026)"><path d="M133.118,176.593a5.809,5.809,0,0,0-3.825,4.2,5.47,5.47,0,0,0,10.728,2.146,5.548,5.548,0,0,0-2.239-5.6,5.031,5.031,0,0,0-2.052-.84h-.093a.857.857,0,0,0,.187.933,8.269,8.269,0,0,1,1.586.746,4.528,4.528,0,0,1,1.772,4.571,4.611,4.611,0,1,1-5.6-5.317Z" transform="translate(-129.194 -176.5)" fill="#faaf3a"/></g><g transform="translate(6.008 23.341)"><path d="M139.241,177.418h0c.28,0,.56-.187.56-.373a8.511,8.511,0,0,0-3.452-7.65.466.466,0,1,0-.56.746h0a7.46,7.46,0,0,1,3.079,6.81C138.867,177.232,138.961,177.418,139.241,177.418Z" transform="translate(-135.634 -169.334)" fill="#39393b"/></g><g transform="translate(5.753 26.665)"><path d="M135.677,174.206h.28c.466-.187,1.772-.746,2.519-.373a.417.417,0,0,0,.373-.746,4.107,4.107,0,0,0-3.265.466.449.449,0,0,0-.187.56A.721.721,0,0,1,135.677,174.206Z" transform="translate(-135.361 -172.897)" fill="#39393b"/></g></g><g transform="translate(11.722 15.065)"><path d="M145.531,158.279s-4.2,11.381-4.385,13.62c-.28,3.079-4.478-7.556-.28-16.7Z" transform="translate(-139.011 -155.2)" fill="#39393b"/></g></g></g><g transform="translate(0.061 153.456)"><path d="M213,408.713H195.741s-4.011-19.124-5.317-29.853-2.052-36.2-2.052-36.2-13.714,4.478-42.54,2.8c-63.716-3.732-39.555-50.563-39.555-50.563,2.146,2.985,18.285,7.09,27.334,8.489,27.707,2.612,48.7,7.37,63.157,13.527A70.84,70.84,0,0,1,206,321.674c3.452,2.146,5.691,8.676,7,17.165C216.824,364.587,213,408.713,213,408.713Z" transform="translate(-101.782 -294.9)" fill="#39393b"/><g transform="translate(4.455 0.816)"><path d="M198.207,399.629a.522.522,0,0,1-.56-.466c-2.519-12.314-3.358-27.614-4.011-39.928-.56-10.168-1.119-19.871-2.426-20.99-1.026-.933-5.5-.187-11.1.746-11.1,1.866-27.893,4.664-46.458.28-10.075-2.332-17.538-7.277-22.016-14.553-7.836-12.594-4.291-28.267-4.2-28.453a.622.622,0,0,1,1.213.28c0,.187-3.452,15.3,4.1,27.52,4.385,7,11.475,11.754,21.27,13.993,18.285,4.291,34.89,1.493,45.9-.373,6.624-1.119,10.542-1.772,12.034-.466,1.586,1.4,2.052,8.489,2.8,21.83.653,12.314,1.493,27.52,4.011,39.741a.642.642,0,0,1-.466.746A.091.091,0,0,1,198.207,399.629Z" transform="translate(-106.557 -295.775)" fill="#585859"/></g><g transform="translate(91.702 103.346)"><path d="M219.876,407.285h0l-19.218-.373a.608.608,0,1,1,.093-1.213l19.218.373a.525.525,0,0,1,.56.653A.624.624,0,0,1,219.876,407.285Z" transform="translate(-200.081 -405.681)" fill="#585859"/></g></g><g transform="translate(94.165 267.269)"><g transform="translate(0.788)"><path d="M219.359,439.01H207.138l-2.332-14.273L203.5,416.9h15.113l.28,7.836Z" transform="translate(-203.5 -416.9)" fill="#ea9b7a"/></g><g transform="translate(2.094 7.836)"><path d="M219.453,439.573H207.232l-1.772-10.635-.56-3.638h14.087l.093,3.825Z" transform="translate(-204.9 -425.3)" fill="#faaf3a"/><path d="M219.08,429.125l-13.62-.187-.56-3.638h14.087Z" transform="translate(-204.9 -425.3)" fill="#c77e2e"/></g><g transform="translate(0 18.845)"><path d="M249.342,459.583H203.257a5.036,5.036,0,0,1-.56-2.519c-.28-3.918.933-10.075,1.586-13.993.093-.466.093-.84.187-1.306a10.786,10.786,0,0,0,.093-1.586c0-3.172,2.8-2.612,2.8-2.612,4.664,4.571,9.889-2.239,13.06,0a2.763,2.763,0,0,0,.373.28c.28.187.653.56,1.213.933.746.653,1.866,1.586,3.358,2.985,3.638,3.265,9.889,5.5,15.206,7.65.653.28,1.306.56,1.866.84.466.187.84.466,1.213.653,4.291,2.332,5.691,4.571,5.97,6.157A3.265,3.265,0,0,1,249.342,459.583Z" transform="translate(-202.656 -437.101)" fill="#0875f7"/><g transform="translate(13.35 0.652)"><path d="M244.611,450.954c-1.213.933-3.825,2.8-5.97,2.8h-.28c-1.493-.093-7-2.8-11.475-5.318-2.519-1.4-4.851-2.8-6.53-3.918-2.8-1.772-3.265-2.519-3.358-2.985-.373-1.772,2.612-3.079,4.664-3.732.28.187.653.56,1.213.933-2.612.746-4.758,1.866-4.664,2.426.28.56,2.985,2.612,9.515,6.157,4.944,2.705,9.7,4.944,10.728,5.038,1.4.093,3.545-1.213,4.851-2.146C243.772,450.487,244.238,450.674,244.611,450.954Z" transform="translate(-216.966 -437.8)" fill="#084fc7"/></g><g transform="translate(0.041 19.963)"><path d="M249.345,461.019H203.26a5.035,5.035,0,0,1-.56-2.519h47.018A3.527,3.527,0,0,1,249.345,461.019Z" transform="translate(-202.7 -458.5)" fill="#084fc7"/></g><g transform="translate(1.534 4.57)"><path d="M208.032,459.912h-1.4a10.267,10.267,0,0,0,2.519-7.37,12.95,12.95,0,0,0-4.851-9.236c.093-.466.093-.84.187-1.306a14.107,14.107,0,0,1,5.784,10.448A10.814,10.814,0,0,1,208.032,459.912Z" transform="translate(-204.3 -442)" fill="#084fc7"/></g><g transform="translate(21.2 5.112)"><path d="M226.145,444.838a.709.709,0,0,1-.746-.56.827.827,0,0,1,.56-.933l2.892-.746a.769.769,0,1,1,.373,1.493l-2.892.746A.129.129,0,0,0,226.145,444.838Z" transform="translate(-225.381 -442.581)" fill="#fff"/></g><g transform="translate(18.308 2.687)"><path d="M223.045,442.238a.709.709,0,0,1-.746-.56.827.827,0,0,1,.56-.933L225.75,440a.769.769,0,0,1,.373,1.493l-2.892.746Z" transform="translate(-222.281 -439.981)" fill="#fff"/></g><g transform="translate(23.998 6.698)"><path d="M229.145,446.538a.709.709,0,0,1-.746-.56.827.827,0,0,1,.56-.933l2.892-.746a.769.769,0,0,1,.373,1.493l-2.892.746Z" transform="translate(-228.381 -444.281)" fill="#fff"/></g><g transform="translate(26.89 8.377)"><path d="M232.245,448.338a.709.709,0,0,1-.746-.56.827.827,0,0,1,.56-.933l2.892-.746a.769.769,0,0,1,.373,1.493l-2.892.746Z" transform="translate(-231.481 -446.081)" fill="#fff"/></g><g transform="translate(30.062 9.87)"><path d="M235.645,449.938a.709.709,0,0,1-.746-.56.827.827,0,0,1,.56-.933l2.892-.746a.769.769,0,1,1,.373,1.493l-2.892.746Z" transform="translate(-234.881 -447.681)" fill="#fff"/></g><g transform="translate(33.421 11.083)"><path d="M239.245,451.238a.709.709,0,0,1-.746-.56.827.827,0,0,1,.56-.933L241.95,449a.769.769,0,0,1,.373,1.493l-2.892.746Z" transform="translate(-238.481 -448.981)" fill="#fff"/></g></g></g></g></g><g transform="translate(0 148.792)"><g transform="translate(0.373)"><path d="M273.806,293.911v3.825c0,2.239-1.306,4.011-2.985,4.011H64.185c-1.679,0-2.985-1.772-2.985-4.011v-3.825c0-2.239,1.306-4.011,2.985-4.011H270.821C272.407,289.9,273.806,291.672,273.806,293.911Z" transform="translate(-61.2 -289.9)" fill="#21b573"/></g><g transform="translate(0.373 5.224)"><rect width="212.513" height="1.772" fill="#217c58"/></g><g transform="translate(10.915 11.754)"><path d="M268.314,312.389H74.086A1.635,1.635,0,0,1,72.5,310.8v-8.3H269.807v8.3A1.5,1.5,0,0,1,268.314,312.389Z" transform="translate(-72.5 -302.5)" fill="#217c58"/></g><g transform="translate(24.348 70.34)"><rect width="173.704" height="6.81" fill="#217c58"/></g><g transform="translate(0 21.643)"><path d="M72.648,452.474,106.232,313.1H94.477L60.8,452.474Z" transform="translate(-60.8 -313.1)" fill="#21b573"/></g><g transform="translate(176.69 21.643)"><path d="M283.784,452.474,250.2,313.1h11.848l33.584,139.374Z" transform="translate(-250.2 -313.1)" fill="#21b573"/></g></g><g transform="translate(13.527 112.875)"><g transform="translate(2.107)"><g transform="translate(0 0.187)"><g transform="translate(0 3.709)"><rect width="3.732" height="27.8" transform="matrix(0.988, -0.151, 0.151, 0.988, 0, 0.565)" fill="#faaf3a"/></g><g transform="translate(0.039)"><path d="M81.238,255.332l-3.638.56.746-2.8.466-1.493.84,1.306Z" transform="translate(-77.6 -251.6)" fill="#ea9b7a"/></g><g transform="translate(3.913 29.215)"><rect width="3.732" height="2.052" transform="matrix(0.988, -0.151, 0.151, 0.988, 0, 0.565)" fill="#39393b"/></g><g transform="translate(4.237 31.159)"><path d="M85.738,286.679l-3.172.466c-.093,0-.28-.093-.28-.187l-.187-1.306L85.738,285l.187,1.306C85.925,286.493,85.832,286.679,85.738,286.679Z" transform="translate(-82.1 -285)" fill="#df615c"/></g><g transform="translate(0.785)"><path d="M79.706,252.906l-1.306.187.466-1.493Z" transform="translate(-78.4 -251.6)" fill="#39393b"/></g><g transform="translate(3.678 27.717)"><rect width="3.732" height="1.493" transform="matrix(0.988, -0.151, 0.151, 0.988, 0, 0.565)" fill="#c77e2e"/></g><g transform="translate(1.065 5.199)"><path d="M78.7,257.478l3.079,20.337a.3.3,0,0,0,.28.28h0a.3.3,0,0,0,.28-.28L79.26,257.478a.3.3,0,0,0-.28-.28h0C78.793,257.1,78.7,257.292,78.7,257.478Z" transform="translate(-78.7 -257.173)" fill="#c77e2e"/></g><g transform="translate(2.557 4.944)"><path d="M80.3,257.18l3.079,20.337a.3.3,0,0,0,.28.28h0a.3.3,0,0,0,.28-.28L80.86,257.18a.3.3,0,0,0-.28-.28h0A.3.3,0,0,0,80.3,257.18Z" transform="translate(-80.3 -256.9)" fill="#c77e2e"/></g></g><g transform="translate(6.524)"><g transform="translate(0 4.007)"><rect width="3.732" height="27.8" transform="translate(0 0.012) rotate(-0.189)" fill="#21b573"/></g><g transform="translate(0.045)"><path d="M88.238,255.411H84.6l1.213-2.612.56-1.4.653,1.4Z" transform="translate(-84.6 -251.4)" fill="#ea9b7a"/></g><g transform="translate(0.136 29.754)"><rect width="3.732" height="2.052" transform="translate(0 0.012) rotate(-0.189)" fill="#39393b"/></g><g transform="translate(0.138 31.718)"><path d="M88.152,287.079H84.98a.3.3,0,0,1-.28-.28v-1.4h3.732v1.4Q88.292,287.079,88.152,287.079Z" transform="translate(-84.7 -285.4)" fill="#df615c"/></g><g transform="translate(1.258)"><path d="M87.113,252.8H85.9l.56-1.4Z" transform="translate(-85.9 -251.4)" fill="#39393b"/></g><g transform="translate(0.137 28.355)"><rect width="3.732" height="1.493" transform="translate(0 0.012) rotate(-0.189)" fill="#217c58"/></g><g transform="translate(0.978 5.131)"><path d="M85.6,257.18l.093,20.617a.247.247,0,0,0,.28.28h0a.247.247,0,0,0,.28-.28L86.16,257.18a.247.247,0,0,0-.28-.28h0A.247.247,0,0,0,85.6,257.18Z" transform="translate(-85.6 -256.9)" fill="#217c58"/></g><g transform="translate(2.377 5.131)"><path d="M87.1,257.18l.093,20.617a.247.247,0,0,0,.28.28h0a.247.247,0,0,0,.28-.28L87.66,257.18a.247.247,0,0,0-.28-.28h0A.247.247,0,0,0,87.1,257.18Z" transform="translate(-87.1 -256.9)" fill="#217c58"/></g></g><g transform="translate(8.901 0.187)"><g transform="translate(0.126 3.679)"><rect width="27.8" height="3.732" transform="translate(0 27.525) rotate(-81.918)" fill="#0875f7"/></g><g transform="translate(4.011)"><path d="M95.132,255.8l-3.732-.466,1.586-2.426.84-1.306.466,1.4Z" transform="translate(-91.4 -251.6)" fill="#ea9b7a"/></g><g transform="translate(0.167 29.24)"><rect width="3.732" height="2.052" transform="translate(0.289) rotate(8.082)" fill="#39393b"/></g><g transform="translate(0 31.252)"><path d="M90.458,287.152l-3.172-.466c-.093,0-.187-.187-.187-.28l.187-1.306,3.638.56-.187,1.306C90.645,287.059,90.552,287.152,90.458,287.152Z" transform="translate(-87.1 -285.1)" fill="#df615c"/></g><g transform="translate(5.597)"><path d="M94.406,253l-1.306-.093.84-1.306Z" transform="translate(-93.1 -251.6)" fill="#39393b"/></g><g transform="translate(0.463 27.785)"><rect width="1.493" height="3.732" transform="translate(0 1.478) rotate(-81.912)" fill="#084fc7"/></g><g transform="translate(1.866 4.851)"><path d="M91.992,257.173,89.1,277.51a.247.247,0,0,0,.28.28h0a.247.247,0,0,0,.28-.28l2.892-20.43a.247.247,0,0,0-.28-.28h0C92.179,256.893,91.992,256.987,91.992,257.173Z" transform="translate(-89.1 -256.8)" fill="#084fc7"/></g><g transform="translate(3.265 5.131)"><path d="M93.492,257.38,90.6,277.81a.247.247,0,0,0,.28.28h0a.247.247,0,0,0,.28-.28l2.892-20.43a.247.247,0,0,0-.28-.28h0Q93.632,257.1,93.492,257.38Z" transform="translate(-90.6 -257.1)" fill="#084fc7"/></g></g></g><g transform="translate(0 15.02)"><path d="M95.171,267.5l-.187,1.493L94.8,270.3l-.187,2.052-.187,1.4-.28,2.052-.187,1.306-.28,2.146-.187,1.306-.28,2.052-.093,1.306-.28,2.146-.187,1.213-.187,1.119H78.005l-.093-1.119-.187-1.213-.28-2.146-.187-1.306-.28-2.052-.187-1.306-.28-2.146-.093-1.306-.28-2.052-.187-1.4-.28-2.052-.187-1.306L75.3,267.5Z" transform="translate(-75.3 -267.5)" fill="#df615c"/><g transform="translate(0.187 1.493)"><path d="M95,269.1l-.187,1.306H75.687L75.5,269.1Z" transform="translate(-75.5 -269.1)" fill="#b11722"/><g transform="translate(0.466 3.358)"><path d="M94.658,272.7l-.187,1.4H76.187L76,272.7Z" transform="translate(-76 -272.7)" fill="#b11722"/></g><g transform="translate(0.933 6.81)"><path d="M94.225,276.4l-.187,1.306H76.593L76.5,276.4Z" transform="translate(-76.5 -276.4)" fill="#b11722"/></g><g transform="translate(1.306 10.262)"><path d="M93.785,280.1l-.187,1.306H77.087L76.9,280.1Z" transform="translate(-76.9 -280.1)" fill="#b11722"/></g><g transform="translate(1.772 13.62)"><path d="M93.352,283.7l-.093,1.306H77.587L77.4,283.7Z" transform="translate(-77.4 -283.7)" fill="#b11722"/></g><g transform="translate(2.239 17.072)"><path d="M93.013,287.4l-.187,1.213H78.087L77.9,287.4Z" transform="translate(-77.9 -287.4)" fill="#b11722"/></g></g></g></g><g transform="translate(89.931 70.615)"><g transform="translate(18.363)"><g transform="translate(0 0.093)"><path d="M280.357,210.4,267.949,262.64l-.28,1.4-.84,3.545a3.391,3.391,0,0,1-3.265,2.612H180.257a3.378,3.378,0,0,1-3.265-4.2l13.527-57.186a3.391,3.391,0,0,1,3.265-2.612h83.307A3.423,3.423,0,0,1,280.357,210.4Z" transform="translate(-176.883 -206.2)" fill="#39393b"/></g><g transform="translate(4.307 56.533)"><path d="M268.259,266.7l-.28,1.4H181.5v-1.4Z" transform="translate(-181.5 -266.7)" fill="#585859"/></g><g transform="translate(23.483 6.344)"><path d="M215.531,219.617a8.431,8.431,0,0,1-7.93,6.717,5.347,5.347,0,0,1-5.411-6.717,8.431,8.431,0,0,1,7.93-6.717C213.758,212.9,216.184,215.885,215.531,219.617Z" transform="translate(-202.055 -212.9)" fill="#faaf3a"/><g transform="translate(4.682 4.105)"><path d="M208.311,218.606c-.093.746-.466,1.306-.84,1.306-.28,0-.466-.56-.373-1.306s.466-1.306.84-1.306C208.218,217.3,208.4,217.86,208.311,218.606Z" transform="translate(-207.074 -217.3)" fill="#39393b"/><g transform="translate(3.442)"><path d="M212.01,218.606c-.093.746-.466,1.306-.84,1.306s-.466-.56-.373-1.306.466-1.306.84-1.306S212.2,217.86,212.01,218.606Z" transform="translate(-210.764 -217.3)" fill="#39393b"/></g></g><g transform="translate(3.213 6.68)"><path d="M208.485,223.362a2.942,2.942,0,0,1-2.985-2.892c0-.187.093-.28.28-.373.187,0,.28.093.28.187a2.437,2.437,0,0,0,2.519,2.426c2.426,0,3.358-2.332,3.452-2.426.093-.187.28-.28.373-.187.187,0,.187.187.187.373C212.59,220.471,211.377,223.362,208.485,223.362Z" transform="translate(-205.5 -220.061)" fill="#39393b"/></g></g><g transform="translate(75.393 40.722)"><path d="M257.7,253.435c.093,3.452,5.97,7.836,5.97,7.836s6.81-4.385,7.65-7.836c.933-3.732-3.358-4.944-6.624-2.052C262.178,248.491,257.7,249.61,257.7,253.435Z" transform="translate(-257.7 -249.752)" fill="#df615c"/></g><g transform="translate(49.888 27.8)"><path d="M243.458,242.43a7.435,7.435,0,0,1-7.277,6.53,5.7,5.7,0,0,1-5.784-6.53,7.435,7.435,0,0,1,7.277-6.53A5.747,5.747,0,0,1,243.458,242.43Z" transform="translate(-230.361 -235.9)" fill="#585859"/></g><path d="M197.049,206.193l-14.367,63.9h-2.426a3.378,3.378,0,0,1-3.265-4.2l13.527-57.186a3.391,3.391,0,0,1,3.265-2.612h3.265Z" transform="translate(-176.883 -206.1)" fill="#585859"/><g transform="translate(41.809 63.996)"><path d="M224.219,274.7,221.7,288.973H230l2.519-14.273Z" transform="translate(-221.7 -274.7)" fill="#fff"/></g><g transform="translate(29.008 71.926)"><path d="M208.278,287.025l1.679-2.426a3.365,3.365,0,0,1,2.612-1.4h22.856a3.2,3.2,0,0,1,2.892,1.772l1.119,2.239a1.519,1.519,0,0,1-1.4,2.239H209.4A1.5,1.5,0,0,1,208.278,287.025Z" transform="translate(-207.978 -283.2)" fill="#fff"/></g></g><g transform="translate(0 72.392)"><path d="M157.2,289.577h68.754l.746-2.612a2.567,2.567,0,0,0-2.426-3.265H160.838a2.493,2.493,0,0,0-2.426,1.866Z" transform="translate(-157.2 -283.7)" fill="#fff"/></g></g><g transform="translate(147.49 30.688)"><path d="M251.458,186.249H221.046A2.111,2.111,0,0,1,218.9,184.1V165.446a2.111,2.111,0,0,1,2.146-2.146h30.412a2.111,2.111,0,0,1,2.146,2.146V184.1A2.17,2.17,0,0,1,251.458,186.249Z" transform="translate(-218.9 -163.3)" fill="#df615c"/><g transform="translate(23.136 19.497)"><path d="M251.256,184.2l-2.705,10.448-4.851-9.8Z" transform="translate(-243.7 -184.2)" fill="#df615c"/></g><g transform="translate(9.579 5.634)"><path d="M244.591,173.5c-.653,3.918-7.93,8.862-7.93,8.862s-7.09-4.944-7.463-8.862c-.466-4.291,4.571-5.6,7.743-2.332C240.3,167.9,245.337,169.209,244.591,173.5Z" transform="translate(-229.168 -169.339)" fill="#fff"/></g></g></g></g><g transform="translate(157.285 16.142)"><g transform="translate(0 3.265)"><ellipse cx="25.281" cy="25.001" rx="25.281" ry="25.001" fill="#ced3e6"/></g><ellipse cx="25.281" cy="25.001" rx="25.281" ry="25.001" fill="#0875f7"/><g transform="translate(4.758 4.664)"><ellipse cx="20.524" cy="20.337" rx="20.524" ry="20.337" fill="#fff"/></g><g transform="translate(4.664 4.664)"><path d="M256.734,92.837a8.535,8.535,0,0,1-.093,1.586,20.607,20.607,0,0,0-41.047,0c0-.56-.093-1.026-.093-1.586a20.619,20.619,0,0,1,41.234,0Z" transform="translate(-215.5 -72.5)" fill="#ced3e6"/></g><g transform="translate(14.731 12.679)"><path d="M236.841,95.559a.485.485,0,0,1-.373-.187L226.393,81.939a.532.532,0,0,1,.84-.653l9.889,13.06L248.316,89.5a.5.5,0,0,1,.373.933l-11.568,5.038A.343.343,0,0,1,236.841,95.559Z" transform="translate(-226.291 -81.091)" fill="#39393b"/></g></g></g></g></svg>