<svg xmlns="http://www.w3.org/2000/svg" width="32" height="32" viewBox="0 0 32 32"><g transform="translate(14.378 12.324)"><path d="M225.622,192a1.622,1.622,0,1,0,1.622,1.622A1.624,1.624,0,0,0,225.622,192Zm0,2.163a.541.541,0,1,1,.541-.541A.541.541,0,0,1,225.622,194.163Z" transform="translate(-224 -192)" fill="#273c63"/></g><path d="M32,16A16,16,0,0,0,0,16v.516H10.823L7.345,25.4a1.735,1.735,0,0,0-.119.633v.1a1.738,1.738,0,0,0,1.032,1.585v1.7H9.29V27.836a1.748,1.748,0,0,0,1.3-1.084l3.533-9.273.043.07h3.669l.015-.024,1.851,5.7h-.088v3.1h2.065v1.548l.91,3.258a1.2,1.2,0,0,0,2.308,0l.891-3.116.015-1.69h2.069v-3.1H25.806V20.645A1.55,1.55,0,0,0,24.258,19.1H23.226a1.538,1.538,0,0,0-1.177.554l-1.038-3.134H32ZM9.624,26.384a.706.706,0,0,1-1.366-.251v-.1a.69.69,0,0,1,.049-.258l4.236-10.827.892,1.427Zm7.638-9.868H14.738l-2.276-3.641.76-1.521h5.556l.76,1.521Zm-2.294-6.194v-3.1h2.065v3.1ZM23.9,30.846a.174.174,0,0,1-.322,0l-.7-2.459h1.728Zm.871-3.492H22.71V26.323h2.065Zm-2.065-6.71a.516.516,0,0,1,.516-.516h1.032a.516.516,0,0,1,.516.516v.516H22.71Zm0,1.548h2.065v1.032H22.71Zm4.129,2.065V25.29H20.645V24.258Zm-5.161-2.446v1.414h-.891l-2.222-6.844.86-1.376Zm-1.008-6.328-.535-1.615.586-.937-.273-.544h1.746V11.355H19.932l-.516-1.032H18.065V6.194H13.935v4.129H12.584l-.516,1.032H6.208a10.837,10.837,0,0,1,19.584,0H23.226v1.032h4.109l-.276-.7a11.872,11.872,0,0,0-22.117,0l-.276.7h6.887l-.272.544.582.931-.635,1.622H1.041a14.968,14.968,0,0,1,29.918,0Z" fill="#273c63"/></svg>