<svg xmlns="http://www.w3.org/2000/svg" width="40" height="40" viewBox="0 0 40 40"><g transform="translate(-165 -344)"><circle cx="20" cy="20" r="20" transform="translate(165 344)" fill="#40291a"/><g transform="translate(-14687.392 -1078.674)"><g transform="translate(14871.437 1451.247)"><g transform="translate(0 0)"><path d="M233.934,362.748a1.214,1.214,0,1,0,1.214,1.214A1.227,1.227,0,0,0,233.934,362.748Z" transform="translate(-232.719 -362.748)" fill="#fff"/></g></g><g transform="translate(14866.392 1431.674)"><g transform="translate(0 0)"><path d="M178.654,127.674a6.294,6.294,0,0,0-6.259,6.314,1.258,1.258,0,1,0,2.516,0,3.743,3.743,0,1,1,3.743,3.776,1.264,1.264,0,0,0-1.258,1.269v5.176a1.258,1.258,0,1,0,2.516,0v-4.035a6.319,6.319,0,0,0-1.258-12.5Z" transform="translate(-172.395 -127.674)" fill="#fff"/></g></g></g></g></svg>